<svg width="92" height="92" viewBox="0 0 92 92" fill="none" xmlns="http://www.w3.org/2000/svg">
<circle cx="46" cy="46" r="46" fill="#F5F8FC"/>
<path d="M46.5 45.75C51.6953 45.75 56 41.5195 56 36.25C56 31.0547 51.6953 26.75 46.5 26.75C41.2305 26.75 37 31.0547 37 36.25C37 41.5195 41.2305 45.75 46.5 45.75ZM46.5 29.125C50.3594 29.125 53.625 32.3906 53.625 36.25C53.625 40.1836 50.3594 43.375 46.5 43.375C42.5664 43.375 39.375 40.1836 39.375 36.25C39.375 32.3906 42.5664 29.125 46.5 29.125ZM50.2109 49.3125H42.7148C35.5898 49.3125 29.875 55.1016 29.875 62.2266C29.875 63.6367 30.9883 64.75 32.3984 64.75H60.5273C61.9375 64.75 63.125 63.6367 63.125 62.2266C63.125 55.1016 57.3359 49.3125 50.2109 49.3125ZM60.5273 62.375H32.3984C32.3242 62.375 32.25 62.3008 32.25 62.2266C32.25 56.4375 36.9258 51.6875 42.7148 51.6875H50.2109C56 51.6875 60.75 56.4375 60.75 62.2266C60.75 62.3008 60.6016 62.375 60.5273 62.375Z" fill="#8694A5"/>
</svg>
