<svg width="92" height="92" viewBox="0 0 92 92" fill="none" xmlns="http://www.w3.org/2000/svg">
<circle cx="46" cy="46" r="46" fill="#F5F8FC"/>
<path d="M50.2109 49.3125H42.7148C35.5898 49.3125 29.875 55.1016 29.875 62.2266C29.875 63.6367 30.9883 64.75 32.3984 64.75H60.5273C61.9375 64.75 63.125 63.6367 63.125 62.2266C63.125 55.1016 57.3359 49.3125 50.2109 49.3125ZM60.5273 62.375H32.3984C32.3242 62.375 32.25 62.3008 32.25 62.2266C32.25 56.4375 36.9258 51.6875 42.7148 51.6875H50.2109C56 51.6875 60.75 56.4375 60.75 62.2266C60.75 62.3008 60.6016 62.375 60.5273 62.375ZM46.5 46.9375C51.6953 46.9375 56 42.707 56 37.4375V28.5312C56 27.7148 55.0352 27.1211 54.2188 27.4922L51.25 29.0508L47.0195 26.8984C46.6484 26.75 46.2773 26.75 45.9062 26.8984L41.75 29.0508L38.707 27.4922C37.8906 27.1211 37 27.7148 37 28.5312V37.4375C37 42.707 41.2305 46.9375 46.5 46.9375ZM39.375 30.4609L41.75 31.6484L46.5 29.2734L51.25 31.6484L53.625 30.4609V35.0625H39.375V30.4609ZM53.625 37.4375C53.625 41.3711 50.3594 44.5625 46.5 44.5625C42.5664 44.5625 39.375 41.3711 39.375 37.4375H53.625Z" fill="#0D7EE7"/>
</svg>
