<svg width="18" height="17" viewBox="0 0 18 17" fill="none" xmlns="http://www.w3.org/2000/svg">
<path d="M8.6333 17C13.3277 17 17.1333 13.1944 17.1333 8.5C17.1333 3.80558 13.3277 0 8.6333 0C3.93888 0 0.133301 3.80558 0.133301 8.5C0.133301 13.1944 3.93888 17 8.6333 17Z" fill="url(#paint0_linear_191_2358)"/>
<path d="M12.3531 11.8878L9.47883 4.93883C9.31672 4.57955 9.07574 4.4043 8.75809 4.4043H8.50396C8.18631 4.4043 7.94533 4.57955 7.78321 4.93883L6.53231 7.96641H5.58592C5.30332 7.9686 5.07329 8.19644 5.0711 8.48123V8.4878C5.07329 8.7704 5.30332 9.00043 5.58592 9.00262H6.09417L4.90023 11.8878C4.87832 11.9513 4.86517 12.0171 4.86517 12.085C4.86517 12.2471 4.91556 12.3741 5.00538 12.4727C5.0952 12.5713 5.22445 12.6195 5.38657 12.6195C5.49391 12.6173 5.59687 12.5845 5.68231 12.5209C5.77432 12.4574 5.83785 12.3654 5.88824 12.2602L7.20267 9.00043H8.11401C8.39662 8.99824 8.62664 8.7704 8.62883 8.48561V8.47247C8.62664 8.18986 8.39662 7.95984 8.11401 7.95765H7.62767L8.63102 5.45803L11.365 12.258C11.4154 12.3632 11.479 12.4552 11.571 12.5187C11.6564 12.5823 11.7616 12.6151 11.8667 12.6173C12.0288 12.6173 12.1559 12.5691 12.2479 12.4705C12.3399 12.372 12.3881 12.2449 12.3881 12.0828C12.3903 12.0171 12.3793 11.9491 12.3531 11.8878Z" fill="white"/>
<defs>
<linearGradient id="paint0_linear_191_2358" x1="14.9708" y1="3.16749" x2="2.32278" y2="13.8095" gradientUnits="userSpaceOnUse">
<stop stop-color="#B6509E"/>
<stop offset="1" stop-color="#2EBAC6"/>
</linearGradient>
</defs>
</svg>
