<svg width="17" height="17" viewBox="0 0 17 17" fill="none" xmlns="http://www.w3.org/2000/svg">
<g clip-path="url(#clip0_191_2251)">
<path d="M8.5 0C13.1949 0 17 3.80591 17 8.5C17 13.1949 13.1949 17 8.5 17C3.80591 17 0 13.1945 0 8.5C0 3.80591 3.80591 0 8.5 0Z" fill="#F5AC37"/>
<path d="M8.81326 9.09997H12.0431C12.112 9.09997 12.1445 9.09998 12.1495 9.0097C12.1759 8.68113 12.1759 8.35065 12.1495 8.0217C12.1495 7.95782 12.1177 7.93143 12.0485 7.93143H5.6205C5.54094 7.93143 5.51952 7.95782 5.51952 8.03241V8.97796C5.51952 9.09997 5.51952 9.09997 5.6469 9.09997H8.81326V9.09997ZM11.7888 6.82637C11.7979 6.80227 11.7979 6.77588 11.7888 6.75217C11.7348 6.63474 11.6709 6.52266 11.5967 6.41748C11.4851 6.2377 11.3535 6.07207 11.2035 5.92328C11.1328 5.83339 11.0509 5.75268 10.9591 5.68422C10.4993 5.29291 9.95274 5.01598 9.36522 4.87675C9.06878 4.81019 8.76583 4.77845 8.46212 4.78112H5.60941C5.52985 4.78112 5.51914 4.81287 5.51914 4.8821V6.76785C5.51914 6.84741 5.51914 6.86883 5.62012 6.86883H11.7505C11.7505 6.86883 11.8037 6.85812 11.8144 6.82637H11.7884H11.7888ZM11.7888 10.205C11.6985 10.1951 11.6075 10.1951 11.5172 10.205H5.62586C5.5463 10.205 5.51952 10.205 5.51952 10.3114V12.155C5.51952 12.2399 5.51952 12.2614 5.62586 12.2614H8.34584C8.47589 12.2713 8.60595 12.2621 8.73332 12.235C9.12806 12.2067 9.5163 12.121 9.88657 11.9798C10.0212 11.9332 10.1513 11.8724 10.274 11.7993H10.3111C10.9488 11.4677 11.4667 10.9467 11.7934 10.3072C11.7934 10.3072 11.8305 10.2268 11.7888 10.2058V10.205ZM4.45195 13.2172V13.1855V11.9477V11.5281V10.2796C4.45195 10.2104 4.45195 10.2001 4.36704 10.2001H3.21417C3.15029 10.2001 3.1239 10.2001 3.1239 10.1151V9.10571H4.35633C4.42518 9.10571 4.45195 9.10571 4.45195 9.01544V8.01672C4.45195 7.95285 4.45195 7.93716 4.36704 7.93716H3.21417C3.15029 7.93716 3.1239 7.93716 3.1239 7.85225V6.91741C3.1239 6.85888 3.1239 6.8432 3.20882 6.8432H4.35097C4.43053 6.8432 4.45195 6.8432 4.45195 6.74222V3.8788C4.45195 3.79388 4.45195 3.77246 4.55829 3.77246H8.54245C8.83162 3.78394 9.11888 3.81568 9.40308 3.86809C9.9887 3.97634 10.5514 4.18557 11.0658 4.4843C11.407 4.68512 11.7211 4.92762 12.0007 5.20685C12.211 5.42526 12.4008 5.66165 12.5691 5.91334C12.7362 6.16847 12.8751 6.44119 12.9841 6.72616C12.9975 6.80036 13.0686 6.85047 13.1428 6.83785H14.0937C14.2157 6.83785 14.2157 6.83785 14.2211 6.95489V7.82624C14.2211 7.91115 14.1894 7.93257 14.1041 7.93257H13.3708C13.2966 7.93257 13.2752 7.93257 13.2805 8.0282C13.3096 8.3518 13.3096 8.67654 13.2805 9.00014C13.2805 9.09041 13.2805 9.10112 13.3819 9.10112H14.2207C14.2578 9.14894 14.2207 9.19675 14.2207 9.24494C14.2261 9.30653 14.2261 9.36888 14.2207 9.43046V10.0734C14.2207 10.1637 14.1943 10.1905 14.1144 10.1905H13.1103C13.0403 10.1771 12.9722 10.2219 12.9562 10.2915C12.7171 10.913 12.3346 11.4704 11.8404 11.9171C11.6599 12.0797 11.4701 12.2327 11.272 12.3738C11.0593 12.4962 10.8524 12.6236 10.6344 12.7246C10.2331 12.9051 9.81236 13.0382 9.38052 13.1228C8.97047 13.1962 8.55469 13.2295 8.13738 13.2237H4.45042V13.2184L4.45195 13.2172Z" fill="#FEFEFD"/>
</g>
<defs>
<clipPath id="clip0_191_2251">
<rect width="17" height="17" fill="white"/>
</clipPath>
</defs>
</svg>
