<svg width="17" height="17" viewBox="0 0 17 17" fill="none" xmlns="http://www.w3.org/2000/svg">
<g clip-path="url(#clip0_191_2389)">
<path d="M8.5 17C13.1944 17 17 13.1944 17 8.5C17 3.80558 13.1944 0 8.5 0C3.80558 0 0 3.80558 0 8.5C0 13.1944 3.80558 17 8.5 17Z" fill="#627EEA"/>
<path d="M8.4635 2.2666V6.6228L12.1454 8.26803L8.4635 2.2666Z" fill="white" fill-opacity="0.602"/>
<path d="M8.46364 2.2666L4.78125 8.26803L8.46364 6.6228V2.2666Z" fill="white"/>
<path d="M8.4635 11.0914V14.0514L12.1479 8.9541L8.4635 11.0914Z" fill="white" fill-opacity="0.602"/>
<path d="M8.46364 14.0514V11.0909L4.78125 8.9541L8.46364 14.0514Z" fill="white"/>
<path d="M8.4635 10.4071L12.1454 8.26926L8.4635 6.625V10.4071Z" fill="white" fill-opacity="0.2"/>
<path d="M4.78125 8.26926L8.46364 10.4071V6.625L4.78125 8.26926Z" fill="white" fill-opacity="0.602"/>
</g>
<defs>
<clipPath id="clip0_191_2389">
<rect width="17" height="17" fill="white"/>
</clipPath>
</defs>
</svg>
