<svg width="17" height="17" viewBox="0 0 17 17" fill="none" xmlns="http://www.w3.org/2000/svg">
<g clip-path="url(#clip0_191_2244)">
<path d="M8.5 0C13.1942 0 17 3.80579 17 8.5C17 13.1942 13.194 17 8.5 17C3.80596 17 0 13.1952 0 8.5C0 3.80477 3.80528 0 8.5 0Z" fill="#53AE94"/>
<path d="M9.54903 7.36783V6.10337H12.4406V4.17676H4.56684V6.10337H7.45871V7.36681C5.10846 7.47476 3.34131 7.94022 3.34131 8.49782C3.34131 9.05542 5.10931 9.52088 7.45871 9.62951V13.6798H9.54971V9.62917C11.8957 9.52088 13.6593 9.05576 13.6593 8.49867C13.6593 7.94158 11.8957 7.47646 9.54971 7.36817M9.54971 9.28611V9.28509C9.49072 9.28883 9.18761 9.30702 8.51271 9.30702C7.97313 9.30702 7.59352 9.29172 7.45973 9.28475V9.28645C5.38335 9.19448 3.83346 8.83289 3.83346 8.40024C3.83346 7.96759 5.38352 7.60651 7.45973 7.51437V8.92622C7.59573 8.93557 7.98469 8.95852 8.52155 8.95852C9.16636 8.95852 9.49055 8.93166 9.55005 8.92622V7.51437C11.6223 7.60668 13.1687 7.96861 13.1687 8.39973C13.1687 8.83085 11.6217 9.19295 9.55005 9.28526" fill="white"/>
</g>
<defs>
<clipPath id="clip0_191_2244">
<rect width="17" height="17" fill="white"/>
</clipPath>
</defs>
</svg>
