<svg width="17" height="17" viewBox="0 0 17 17" fill="none" xmlns="http://www.w3.org/2000/svg">
<g clip-path="url(#clip0_191_2247)">
<path d="M8.5 17C13.2104 17 17 13.2104 17 8.5C17 3.78956 13.2104 0 8.5 0C3.78956 0 0 3.78956 0 8.5C0 13.2104 3.78956 17 8.5 17Z" fill="#2775CA"/>
<path d="M10.8375 9.84629C10.8375 8.60673 10.0937 8.18173 8.60623 8.00468C7.54373 7.86298 7.33123 7.57968 7.33123 7.08379C7.33123 6.5879 7.68543 6.26923 8.39373 6.26923C9.03123 6.26923 9.38543 6.48173 9.56248 7.01298C9.59793 7.11923 9.70418 7.19004 9.81043 7.19004H10.377C10.5187 7.19004 10.625 7.08379 10.625 6.94218V6.90673C10.4833 6.12754 9.84579 5.52548 9.03123 5.45468V4.60468C9.03123 4.46298 8.92498 4.35673 8.74793 4.32129H8.21667C8.07498 4.32129 7.96873 4.42754 7.93329 4.60468V5.41923C6.87079 5.56093 6.19792 6.26923 6.19792 7.15468C6.19792 8.32343 6.90623 8.78379 8.39373 8.96093C9.38543 9.13799 9.70418 9.35049 9.70418 9.91718C9.70418 10.4839 9.20829 10.8734 8.53542 10.8734C7.61453 10.8734 7.29579 10.4838 7.18954 9.95254C7.15418 9.81093 7.04792 9.74004 6.94167 9.74004H6.33954C6.19793 9.74004 6.09167 9.84629 6.09167 9.98798V10.0234C6.23328 10.9088 6.79998 11.5463 7.96873 11.7234V12.5734C7.96873 12.715 8.07498 12.8213 8.25204 12.8567H8.78328C8.92498 12.8567 9.03123 12.7505 9.06668 12.5734V11.7234C10.1292 11.5463 10.8375 10.8025 10.8375 9.84629V9.84629Z" fill="white"/>
<path d="M6.69371 13.5649C3.93121 12.5732 2.51451 9.49199 3.54165 6.76485C4.0729 5.27735 5.24165 4.14405 6.69371 3.6128C6.8354 3.54199 6.90621 3.43574 6.90621 3.2586V2.7628C6.90621 2.6211 6.8354 2.51485 6.69371 2.47949C6.65826 2.47949 6.58746 2.47949 6.55201 2.51485C3.18746 3.57735 1.34576 7.15449 2.40826 10.519C3.04576 12.5024 4.56871 14.0253 6.55201 14.6628C6.69371 14.7336 6.8354 14.6628 6.87076 14.5211C6.90621 14.4857 6.90621 14.4503 6.90621 14.3795V13.8836C6.90621 13.7774 6.79996 13.6357 6.69371 13.5649ZM10.4479 2.51485C10.3062 2.44405 10.1645 2.51485 10.1292 2.65655C10.0937 2.69199 10.0937 2.72735 10.0937 2.79824V3.29405C10.0937 3.43574 10.2 3.57735 10.3062 3.64824C13.0687 4.63985 14.4854 7.7211 13.4583 10.4482C12.927 11.9357 11.7583 13.069 10.3062 13.6003C10.1645 13.6711 10.0937 13.7774 10.0937 13.9545V14.4503C10.0937 14.592 10.1645 14.6982 10.3062 14.7336C10.3417 14.7336 10.4125 14.7336 10.4479 14.6982C13.8125 13.6357 15.6542 10.0586 14.5917 6.69405C13.9542 4.6753 12.3958 3.15235 10.4479 2.51485V2.51485Z" fill="white"/>
</g>
<defs>
<clipPath id="clip0_191_2247">
<rect width="17" height="17" fill="white"/>
</clipPath>
</defs>
</svg>
