<svg width="17" height="17" viewBox="0 0 17 17" fill="none" xmlns="http://www.w3.org/2000/svg">
<g clip-path="url(#clip0_191_2347)">
<path d="M13.8617 3.56753L13.395 4.03431C14.5088 5.25233 15.1264 6.84308 15.1264 8.49358C15.1264 10.1441 14.5088 11.7348 13.395 12.9529L13.8617 13.4196C15.1004 12.0761 15.7881 10.3156 15.7881 8.48813C15.7881 6.66071 15.1004 4.90021 13.8617 3.55664V3.56753Z" fill="#5A5564"/>
<path d="M4.04542 3.60799C5.26344 2.49418 6.85419 1.87652 8.50469 1.87652C10.1552 1.87652 11.7459 2.49418 12.964 3.60799L13.4307 3.14121C12.0872 1.90254 10.3267 1.21484 8.49924 1.21484C6.67182 1.21484 4.91132 1.90254 3.56775 3.14121L4.04542 3.60799Z" fill="#5A5564"/>
<path d="M3.60817 12.9578C2.49568 11.74 1.87883 10.1503 1.87883 8.50086C1.87883 6.85146 2.49568 5.26168 3.60817 4.04393L3.14139 3.57715C1.90272 4.92072 1.21503 6.68122 1.21503 8.50864C1.21503 10.3361 1.90272 12.0966 3.14139 13.4401L3.60817 12.9578Z" fill="#5A5564"/>
<path d="M12.9577 13.3887C11.7397 14.5025 10.1489 15.1201 8.49844 15.1201C6.84794 15.1201 5.25719 14.5025 4.03916 13.3887L3.57239 13.8554C4.91596 15.0941 6.67646 15.7818 8.50388 15.7818C10.3313 15.7818 12.0918 15.0941 13.4354 13.8554L12.9577 13.3887Z" fill="#5A5564"/>
<path d="M11.4469 6.94271C11.3536 5.9687 10.5134 5.64196 9.45067 5.54238V4.20117H8.62914V5.51748C8.41287 5.51748 8.19192 5.51748 7.97254 5.51748V4.20117H7.15724V5.55171H5.49084V6.43081C5.49084 6.43081 6.09765 6.41992 6.08832 6.43081C6.19773 6.41877 6.30754 6.44968 6.39462 6.51701C6.48169 6.58435 6.53922 6.68286 6.5551 6.79178V10.4887C6.55276 10.5271 6.54274 10.5646 6.52564 10.5991C6.50853 10.6336 6.48469 10.6643 6.45552 10.6894C6.42689 10.7149 6.39339 10.7345 6.35703 10.7468C6.32066 10.7591 6.28219 10.7639 6.24391 10.7609C6.2548 10.7703 5.64644 10.7609 5.64644 10.7609L5.49084 11.7427H7.14168V13.115H7.9632V11.763H8.6198V13.1088H9.44289V11.7521C10.8308 11.668 11.7986 11.3257 11.9199 10.0265C12.0179 8.98096 11.5263 8.51419 10.7405 8.32592C11.2182 8.09098 11.5138 7.65532 11.4469 6.94271ZM10.2955 9.86473C10.2955 10.8854 8.54667 10.7687 7.98965 10.7687V8.95762C8.54667 8.95918 10.2955 8.79892 10.2955 9.86473ZM9.91433 7.31302C9.91433 8.24657 8.45488 8.13299 7.99121 8.13299V6.48682C8.45488 6.48682 9.91433 6.34056 9.91433 7.31302Z" fill="#F09242"/>
<path d="M8.49845 17C6.81744 16.9997 5.17427 16.501 3.77669 15.5668C2.37911 14.6327 1.28988 13.3052 0.64673 11.7521C0.00357806 10.199 -0.164619 8.49005 0.163405 6.84135C0.491429 5.19266 1.30094 3.67825 2.4896 2.4896C3.67825 1.30094 5.19266 0.491429 6.84135 0.163405C8.49005 -0.164619 10.199 0.00357806 11.7521 0.64673C13.3052 1.28988 14.6327 2.37911 15.5668 3.77669C16.501 5.17427 16.9997 6.81744 17 8.49845C17.0002 9.61494 16.7804 10.7205 16.3533 11.7521C15.9261 12.7836 15.2999 13.7209 14.5104 14.5104C13.7209 15.2999 12.7836 15.9261 11.7521 16.3533C10.7205 16.7804 9.61494 17.0002 8.49845 17V17ZM8.49845 0.662826C6.94972 0.664057 5.43612 1.12439 4.14896 1.98565C2.8618 2.84691 1.85885 4.07042 1.26689 5.50156C0.674928 6.93269 0.520524 8.50719 0.823194 10.026C1.12586 11.5449 1.87202 12.94 2.96735 14.0349C4.06268 15.1298 5.45802 15.8754 6.97701 16.1774C8.49599 16.4795 10.0704 16.3245 11.5013 15.7319C12.9322 15.1394 14.1553 14.136 15.0161 12.8485C15.8768 11.561 16.3366 10.0472 16.3372 8.49845C16.3376 7.46908 16.1351 6.44973 15.7413 5.49868C15.3474 4.54763 14.77 3.68354 14.042 2.95581C13.314 2.22809 12.4497 1.651 11.4984 1.25755C10.5472 0.864102 9.52781 0.662008 8.49845 0.662826V0.662826Z" fill="#282138"/>
</g>
<defs>
<clipPath id="clip0_191_2347">
<rect width="17" height="17" fill="white"/>
</clipPath>
</defs>
</svg>
