<svg width="20" height="20" viewBox="0 0 20 20" fill="none" xmlns="http://www.w3.org/2000/svg">
<g clip-path="url(#clip0_191_2376)">
<path d="M16.1676 3.43066H3.81897V14.6541H16.1676V3.43066Z" fill="white"/>
<path fill-rule="evenodd" clip-rule="evenodd" d="M19.9934 10.0004C19.9934 15.5159 15.5193 19.9871 10.0001 19.9871C4.48089 19.9871 0.00671387 15.5159 0.00671387 10.0004C0.00671387 4.48487 4.48089 0.0136719 10.0001 0.0136719C15.5193 0.0136719 19.9934 4.48487 19.9934 10.0004ZM7.16823 13.9746H5.2288C4.82127 13.9746 4.61997 13.9746 4.49723 13.8961C4.36465 13.8102 4.28364 13.6679 4.27382 13.5109C4.26645 13.3662 4.36711 13.1895 4.56842 12.8362L9.35711 4.40111C9.56087 4.04291 9.66397 3.86382 9.79409 3.79758C9.93402 3.72644 10.101 3.72644 10.2409 3.79758C10.371 3.86382 10.4741 4.04291 10.6779 4.40111L11.6623 6.11845L11.6674 6.12721C11.8874 6.51148 11.999 6.70634 12.0478 6.91087C12.1018 7.13412 12.1018 7.36964 12.0478 7.5929C11.9987 7.79898 11.8882 7.99525 11.6648 8.38533L9.1494 12.8289L9.14289 12.8402C8.92136 13.2277 8.8091 13.424 8.6535 13.5722C8.48411 13.7341 8.28034 13.8518 8.05693 13.9182C7.85317 13.9746 7.62486 13.9746 7.16823 13.9746ZM12.0659 13.9746H14.8449C15.2549 13.9746 15.4611 13.9746 15.584 13.8937C15.7165 13.8078 15.7999 13.663 15.8074 13.5061C15.8144 13.3661 15.716 13.1963 15.523 12.8635C15.5164 12.8522 15.5097 12.8406 15.5029 12.8289L14.1109 10.4492L14.0951 10.4224C13.8995 10.0918 13.8007 9.92489 13.6739 9.86037C13.5341 9.78922 13.3695 9.78922 13.2296 9.86037C13.1019 9.92661 12.9988 10.1008 12.7951 10.4516L11.408 12.8314L11.4032 12.8396C11.2002 13.1898 11.0987 13.3649 11.106 13.5085C11.1159 13.6655 11.1969 13.8102 11.3294 13.8961C11.4497 13.9746 11.6559 13.9746 12.0659 13.9746Z" fill="#E84142"/>
</g>
<defs>
<clipPath id="clip0_191_2376">
<rect width="20" height="20" fill="white"/>
</clipPath>
</defs>
</svg>
