<svg width="20" height="20" viewBox="0 0 20 20" fill="none" xmlns="http://www.w3.org/2000/svg">
<g clip-path="url(#clip0_191_2379)">
<path d="M10 20C15.5228 20 20 15.5228 20 10C20 4.47715 15.5228 0 10 0C4.47715 0 0 4.47715 0 10C0 15.5228 4.47715 20 10 20Z" fill="#EFEFEF"/>
<path d="M10.3108 12.5481L10.4036 12.6407L14.6535 10.1287L10.4036 3.07715L10.3108 3.39266V12.5481Z" fill="#343434"/>
<path d="M10.4036 12.6408V3.07715L6.15381 10.1287L10.4036 12.6408Z" fill="#8C8C8C"/>
<path d="M10.3513 16.7705L10.4036 16.9233L14.656 10.9346L10.4037 13.4454L10.3514 13.5091L10.3513 16.7705Z" fill="#3C3C3B"/>
<path d="M6.15381 10.9346L10.4036 16.9233V13.4454L6.15381 10.9346Z" fill="#8C8C8C"/>
<path d="M10.4036 8.19727V12.641L14.6533 10.1289L10.4036 8.19727Z" fill="#141414"/>
<path d="M10.4036 8.19727L6.15381 10.1289L10.4036 12.6409V8.19727Z" fill="#393939"/>
</g>
<defs>
<clipPath id="clip0_191_2379">
<rect width="20" height="20" fill="white"/>
</clipPath>
</defs>
</svg>
