<svg width="20" height="21" viewBox="0 0 20 21" fill="none" xmlns="http://www.w3.org/2000/svg">
<path d="M9.99606 0C15.5214 0 20 4.47855 20 10.0039C20 15.5293 15.5214 20.0039 10 20.0039C4.47462 20.0039 2.59168e-06 15.5254 2.59168e-06 10.0039C-0.00393287 4.47855 4.47462 0 9.99606 0Z" fill="#8247E5"/>
<path d="M13.2743 7.82506C13.0343 7.68732 12.7273 7.68732 12.4557 7.82506L10.5431 8.95848L9.24442 9.67866L7.3672 10.8081C7.12714 10.9459 6.82017 10.9459 6.54863 10.8081L5.0807 9.91479C4.84064 9.77705 4.67141 9.50157 4.67141 9.1946V7.47874C4.67141 7.20326 4.80915 6.93172 5.0807 6.75856L6.54863 5.90063C6.78869 5.76288 7.09565 5.76288 7.3672 5.90063L8.83513 6.79397C9.07519 6.93172 9.24442 7.2072 9.24442 7.51416V8.64757L10.5431 7.89197V6.72707C10.5431 6.45159 10.4054 6.18004 10.1338 6.00688L7.40262 4.39334C7.16256 4.2556 6.85559 4.2556 6.58405 4.39334L3.78594 6.0423C3.51439 6.18004 3.37665 6.45552 3.37665 6.72707V9.95021C3.37665 10.2257 3.51439 10.4972 3.78594 10.6704L6.55256 12.2839C6.79262 12.4217 7.09959 12.4217 7.37114 12.2839L9.24835 11.1859L10.5471 10.4303L12.4243 9.33234C12.6643 9.1946 12.9713 9.1946 13.2428 9.33234L14.7108 10.1903C14.9508 10.328 15.1201 10.6035 15.1201 10.9105V12.6263C15.1201 12.9018 14.9823 13.1734 14.7108 13.3465L13.2783 14.2044C13.0382 14.3422 12.7312 14.3422 12.4597 14.2044L10.9878 13.3465C10.7478 13.2088 10.5785 12.9333 10.5785 12.6263V11.5283L9.27983 12.2839V13.4173C9.27983 13.6928 9.41757 13.9644 9.68912 14.1375L12.4557 15.7511C12.6958 15.8888 13.0028 15.8888 13.2743 15.7511L16.041 14.1375C16.281 13.9998 16.4502 13.7243 16.4502 13.4173V10.1588C16.4502 9.88331 16.3125 9.61176 16.041 9.4386L13.2743 7.82506Z" fill="white"/>
</svg>
