<svg width="150" height="150" viewBox="0 0 150 150" fill="none" xmlns="http://www.w3.org/2000/svg">
<g clip-path="url(#clip0_801_23)">
<path d="M75 150C116.421 150 150 116.421 150 75C150 33.5786 116.421 0 75 0C33.5786 0 0 33.5786 0 75C0 116.421 33.5786 150 75 150Z" fill="#F3BA2F"/>
<g clip-path="url(#clip1_801_23)">
<path d="M74.8488 25.2104L87.1481 37.806L56.1777 68.7763L43.8785 56.4771L74.8488 25.2104Z" fill="white" stroke="white"/>
<path d="M93.5199 43.8815L105.819 56.4771L56.1778 106.118L43.8785 93.8193L93.5199 43.8815Z" fill="white" stroke="white"/>
<path d="M37.5067 62.5526L49.8059 75.1482L37.5067 87.4474L25.2075 75.1482L37.5067 62.5526Z" fill="white" stroke="white"/>
<path d="M112.191 62.5526L124.49 75.1482L74.8488 124.79L62.5496 112.49L112.191 62.5526Z" fill="white" stroke="white"/>
</g>
</g>
<defs>
<clipPath id="clip0_801_23">
<rect width="150" height="150" fill="white"/>
</clipPath>
<clipPath id="clip1_801_23">
<rect width="99.7007" height="100" fill="white" transform="translate(25 25)"/>
</clipPath>
</defs>
</svg>
