<svg width="100" height="100" viewBox="0 0 100 100" fill="none" xmlns="http://www.w3.org/2000/svg">
<g clip-path="url(#clip0_239_2259)">
<circle cx="50" cy="50" r="50" fill="#0D7EE7"/>
<path d="M51.0288 20.4654L74.414 33.9613C75.3599 34.5072 75.9426 35.5161 75.9426 36.6077V63.5995C75.9426 64.6911 75.3599 65.7 74.414 66.2459L51.0288 79.7418C50.0828 80.2877 48.9172 80.2877 47.9712 79.7418L24.586 66.2459C23.6401 65.7 23.0574 64.6911 23.0574 63.5995V36.6077C23.0574 35.5161 23.6401 34.5072 24.586 33.9613L47.9712 20.4654C48.9172 19.9195 50.0828 19.9195 51.0288 20.4654ZM53.3073 16.5198C50.9513 15.1601 48.0487 15.1601 45.6927 16.5198L22.3075 30.0156C19.9515 31.3753 18.5 33.8882 18.5 36.6077V63.5995C18.5 66.319 19.9515 68.8319 22.3075 70.1916L45.6927 83.6874C48.0487 85.0471 50.9513 85.0471 53.3073 83.6874L76.6925 70.1916C79.0485 68.8319 80.5 66.319 80.5 63.5995V36.6077C80.5 33.8882 79.0485 31.3753 76.6925 30.0156L53.3073 16.5198Z" fill="white" stroke="white"/>
<path d="M45.9353 34.7098C48.1412 33.4393 50.8589 33.4393 53.0648 34.7098L61.0809 39.3269C63.2867 40.5974 64.6456 42.9455 64.6456 45.4865V54.7208C64.6456 57.2618 63.2867 59.6099 61.0809 60.8804L53.0648 65.4975C50.8589 66.768 48.1412 66.768 45.9353 65.4975L37.9192 60.8804C35.7134 59.6099 34.3545 57.2618 34.3545 54.7207V45.4865C34.3545 42.9455 35.7134 40.5974 37.9192 39.3269L45.9353 34.7098Z" fill="white" fill-opacity="0.4"/>
<path d="M51.0329 38.2229L59.0489 42.84C59.9973 43.3862 60.5809 44.3952 60.5809 45.4865V54.7208C60.5809 55.8121 59.9973 56.8211 59.0489 57.3673L51.0328 61.9844C50.0844 62.5307 48.9157 62.5307 47.9672 61.9844L39.9511 57.3673C39.0028 56.8211 38.4192 55.8121 38.4192 54.7207V45.4865C38.4192 44.3952 39.0028 43.3862 39.9511 42.84L47.9672 38.2229C48.9157 37.6766 50.0844 37.6766 51.0329 38.2229ZM37.6697 61.3137L37.9192 60.8804L37.6697 61.3137L45.6858 65.9308C48.0461 67.2903 50.954 67.2903 53.3143 65.9308L61.3304 61.3137C63.6909 59.9541 65.1456 57.441 65.1456 54.7208V45.4865C65.1456 42.7663 63.6909 40.2532 61.3304 38.8936L53.3143 34.2765C50.954 32.917 48.0461 32.917 45.6858 34.2765L37.6697 38.8936C35.3092 40.2532 33.8545 42.7663 33.8545 45.4865V54.7207C33.8545 57.441 35.3092 59.9541 37.6697 61.3137Z" fill="white" stroke="white"/>
</g>
<defs>
<clipPath id="clip0_239_2259">
<rect width="100" height="100" fill="white"/>
</clipPath>
</defs>
</svg>
