<svg width="100" height="100" viewBox="0 0 100 100" fill="none" xmlns="http://www.w3.org/2000/svg">
<g clip-path="url(#clip0_239_2259)">
<circle cx="50" cy="50" r="50" fill="#0D7EE7"/>
<path fill-rule="evenodd" clip-rule="evenodd" d="M74.6639 33.5282L51.2787 20.0323C50.178 19.3971 48.822 19.3971 47.7213 20.0323L24.3361 33.5282C23.2354 34.1634 22.5574 35.3373 22.5574 36.6077V63.5995C22.5574 64.8699 23.2354 66.0438 24.3361 66.679L47.7213 80.1748C48.822 80.8101 50.178 80.8101 51.2787 80.1748L74.6639 66.679C75.7645 66.0438 76.4426 64.8699 76.4426 63.5995V36.6077C76.4426 35.3373 75.7645 34.1634 74.6639 33.5282ZM53.0574 16.9528C50.8561 15.6824 48.1439 15.6824 45.9426 16.9528L22.5574 30.4487C20.3561 31.7191 19 34.0669 19 36.6077V63.5995C19 66.1403 20.3561 68.4881 22.5574 69.7585L45.9426 83.2544C48.1439 84.5248 50.8561 84.5248 53.0574 83.2544L76.4426 69.7585C78.6439 68.4881 80 66.1403 80 63.5995V36.6077C80 34.0669 78.6439 31.7191 76.4426 30.4487L53.0574 16.9528Z" fill="white"/>
<path d="M45.9353 34.7098C48.1412 33.4393 50.8589 33.4393 53.0648 34.7098L61.0809 39.3269C63.2867 40.5974 64.6456 42.9455 64.6456 45.4865V54.7208C64.6456 57.2618 63.2867 59.6099 61.0809 60.8804L53.0648 65.4975C50.8589 66.768 48.1412 66.768 45.9353 65.4975L37.9192 60.8804C35.7134 59.6099 34.3545 57.2618 34.3545 54.7207V45.4865C34.3545 42.9455 35.7134 40.5974 37.9192 39.3269L45.9353 34.7098Z" fill="white" fill-opacity="0.4"/>
<path fill-rule="evenodd" clip-rule="evenodd" d="M59.2985 42.4067L51.2824 37.7896C50.1795 37.1543 48.8206 37.1543 47.7177 37.7896L39.7016 42.4067C38.5987 43.042 37.9192 44.216 37.9192 45.4865V54.7207C37.9192 55.9913 38.5987 57.1653 39.7016 57.8006L47.7177 62.4177C48.8206 63.0529 50.1795 63.0529 51.2824 62.4177L59.2985 57.8006C60.4014 57.1653 61.0809 55.9913 61.0809 54.7208V45.4865C61.0809 44.216 60.4014 43.042 59.2985 42.4067ZM53.0648 34.7098C50.8589 33.4393 48.1412 33.4393 45.9353 34.7098L37.9192 39.3269C35.7134 40.5974 34.3545 42.9455 34.3545 45.4865V54.7207C34.3545 57.2618 35.7134 59.6098 37.9192 60.8804L45.9353 65.4975C48.1412 66.768 50.8589 66.768 53.0648 65.4975L61.0809 60.8804C63.2867 59.6099 64.6456 57.2618 64.6456 54.7208V45.4865C64.6456 42.9455 63.2867 40.5974 61.0809 39.3269L53.0648 34.7098Z" fill="white"/>
</g>
<defs>
<clipPath id="clip0_239_2259">
<rect width="100" height="100" fill="white"/>
</clipPath>
</defs>
</svg>
