<svg width="13" height="13" viewBox="0 0 13 13" fill="none" xmlns="http://www.w3.org/2000/svg">
<g clip-path="url(#clip0_1_2701)">
<path d="M10.509 2.23004H2.48236V9.52525H10.509V2.23004Z" fill="white"/>
<path fill-rule="evenodd" clip-rule="evenodd" d="M12.9957 6.49999C12.9957 10.0851 10.0875 12.9913 6.50001 12.9913C2.91255 12.9913 0.0043335 10.0851 0.0043335 6.49999C0.0043335 2.91491 2.91255 0.00863647 6.50001 0.00863647C10.0875 0.00863647 12.9957 2.91491 12.9957 6.49999ZM4.65932 9.08322H3.39869C3.1338 9.08322 3.00295 9.08322 2.92317 9.03223C2.83699 8.97639 2.78434 8.8839 2.77795 8.78182C2.77316 8.68778 2.83859 8.57292 2.96944 8.34329L6.08209 2.86047C6.21454 2.62764 6.28155 2.51123 6.36613 2.46818C6.45708 2.42193 6.5656 2.42193 6.65655 2.46818C6.74113 2.51123 6.80815 2.62764 6.94059 2.86047L7.58049 3.97674L7.58375 3.98244C7.7268 4.23221 7.79934 4.35887 7.83102 4.49181C7.86612 4.63693 7.86612 4.79002 7.83102 4.93514C7.7991 5.06909 7.72729 5.19667 7.58208 5.45022L5.94708 8.33851L5.94285 8.34591C5.79886 8.59774 5.72588 8.72538 5.62474 8.82167C5.51464 8.92695 5.38219 9.00344 5.23698 9.04658C5.10453 9.08322 4.95613 9.08322 4.65932 9.08322ZM7.84282 9.08322H9.64916C9.91564 9.08322 10.0497 9.08322 10.1295 9.03067C10.2157 8.97483 10.2699 8.8807 10.2748 8.77871C10.2794 8.68769 10.2153 8.57731 10.0899 8.36102C10.0856 8.35366 10.0813 8.34617 10.0769 8.33854L9.17206 6.79171L9.16177 6.7743C9.03462 6.55943 8.97044 6.45093 8.88801 6.40899C8.79711 6.36274 8.69011 6.36274 8.5992 6.40899C8.51622 6.45205 8.4492 6.56527 8.31676 6.79331L7.41516 8.34014L7.41208 8.34547C7.2801 8.57314 7.21414 8.68691 7.21889 8.78027C7.22528 8.88235 7.27793 8.97639 7.3641 9.03223C7.4423 9.08322 7.57634 9.08322 7.84282 9.08322Z" fill="#E84142"/>
</g>
<defs>
<clipPath id="clip0_1_2701">
<rect width="13" height="13" fill="white"/>
</clipPath>
</defs>
</svg>
