<svg width="13" height="13" viewBox="0 0 13 13" fill="none" xmlns="http://www.w3.org/2000/svg">
<g clip-path="url(#clip0_1_2677)">
<path d="M6.5 13C10.0899 13 13 10.0899 13 6.5C13 2.91015 10.0899 0 6.5 0C2.91015 0 0 2.91015 0 6.5C0 10.0899 2.91015 13 6.5 13Z" fill="#EFEFEF"/>
<path d="M6.70203 8.15609L6.76236 8.21632L9.52476 6.58348L6.76236 2L6.70203 2.20508V8.15609Z" fill="#343434"/>
<path d="M6.76239 8.21634V2L4 6.58348L6.76239 8.21634Z" fill="#8C8C8C"/>
<path d="M6.72833 10.9007L6.76233 11L9.52639 7.10733L6.76235 8.73935L6.72835 8.7808L6.72833 10.9007Z" fill="#3C3C3B"/>
<path d="M4 7.1073L6.76239 11V8.73932L4 7.1073Z" fill="#8C8C8C"/>
<path d="M6.76239 5.32791V8.21631L9.52474 6.58349L6.76239 5.32791Z" fill="#141414"/>
<path d="M6.76235 5.32791L4 6.58347L6.76235 8.21629V5.32791Z" fill="#393939"/>
</g>
<defs>
<clipPath id="clip0_1_2677">
<rect width="13" height="13" fill="white"/>
</clipPath>
</defs>
</svg>
