<svg width="87" height="97" viewBox="0 0 87 97" fill="none" xmlns="http://www.w3.org/2000/svg">
<path d="M38.5 1.88686C41.594 0.100537 45.406 0.100538 48.5 1.88687L81.3682 20.8634C84.4622 22.6497 86.3682 25.951 86.3682 29.5236V67.4766C86.3682 71.0493 84.4622 74.3505 81.3682 76.1369L48.5 95.1134C45.406 96.8997 41.594 96.8997 38.5 95.1134L5.63171 76.1369C2.5377 74.3505 0.631714 71.0493 0.631714 67.4766V29.5236C0.631714 25.951 2.5377 22.6497 5.63171 20.8634L38.5 1.88686Z" fill="#0D7EE7"/>
<path fill-rule="evenodd" clip-rule="evenodd" d="M78.8682 25.1935L46 6.21699C44.453 5.32383 42.547 5.32383 41 6.21699L8.13171 25.1935C6.58471 26.0867 5.63171 27.7373 5.63171 29.5236V67.4766C5.63171 69.2629 6.58471 70.9136 8.13171 71.8067L41 90.7832C42.547 91.6764 44.453 91.6764 46 90.7832L78.8682 71.8067C80.4152 70.9136 81.3682 69.2629 81.3682 67.4766V29.5236C81.3682 27.7373 80.4152 26.0867 78.8682 25.1935ZM48.5 1.88687C45.406 0.100538 41.594 0.100537 38.5 1.88686L5.63171 20.8634C2.5377 22.6497 0.631714 25.951 0.631714 29.5236V67.4766C0.631714 71.0493 2.5377 74.3505 5.63171 76.1369L38.5 95.1134C41.594 96.8997 45.406 96.8997 48.5 95.1134L81.3682 76.1369C84.4622 74.3505 86.3682 71.0493 86.3682 67.4766V29.5236C86.3682 25.951 84.4622 22.6497 81.3682 20.8634L48.5 1.88687Z" fill="#0D7EE7"/>
<path d="M38.53 26.8869C41.624 25.1005 45.436 25.1005 48.53 26.8869L59.7736 33.3784C62.8676 35.1647 64.7736 38.466 64.7736 42.0386V55.0216C64.7736 58.5943 62.8676 61.8955 59.7736 63.6819L48.53 70.1734C45.436 71.9597 41.624 71.9597 38.53 70.1734L27.2864 63.6819C24.1924 61.8955 22.2864 58.5943 22.2864 55.0216V42.0386C22.2864 38.466 24.1924 35.1647 27.2864 33.3784L38.53 26.8869Z" fill="white" fill-opacity="0.4"/>
<path fill-rule="evenodd" clip-rule="evenodd" d="M57.2736 37.7085L46.03 31.217C44.483 30.3238 42.577 30.3238 41.03 31.217L29.7864 37.7085C28.2394 38.6017 27.2864 40.2523 27.2864 42.0386V55.0216C27.2864 56.8079 28.2394 58.4586 29.7864 59.3517L41.03 65.8432C42.577 66.7364 44.483 66.7364 46.03 65.8432L57.2736 59.3517C58.8206 58.4586 59.7736 56.8079 59.7736 55.0216V42.0386C59.7736 40.2523 58.8206 38.6017 57.2736 37.7085ZM48.53 26.8869C45.436 25.1005 41.624 25.1005 38.53 26.8869L27.2864 33.3784C24.1924 35.1647 22.2864 38.466 22.2864 42.0386V55.0216C22.2864 58.5943 24.1924 61.8955 27.2864 63.6819L38.53 70.1734C41.624 71.9597 45.436 71.9597 48.53 70.1734L59.7736 63.6819C62.8676 61.8955 64.7736 58.5943 64.7736 55.0216V42.0386C64.7736 38.466 62.8676 35.1647 59.7736 33.3784L48.53 26.8869Z" fill="white"/>
</svg>
