<svg width="276" height="52" viewBox="0 0 276 52" fill="none" xmlns="http://www.w3.org/2000/svg">
<path d="M73.0156 39.9606C70.1711 39.9606 67.7273 39.3917 65.6844 38.2539C63.6673 37.0902 62.1157 35.461 61.0296 33.3663C59.9434 31.2458 59.4004 28.7503 59.4004 25.8799C59.4004 23.7335 59.7107 21.8069 60.3313 20.1002C60.952 18.3676 61.8442 16.8935 63.0079 15.6781C64.1715 14.4369 65.5938 13.493 67.2747 12.8465C68.9815 12.1741 70.8951 11.8379 73.0156 11.8379C74.4379 11.8379 75.8344 12.019 77.205 12.381C78.5755 12.743 79.778 13.2602 80.8124 13.9326C81.3555 14.2688 81.7175 14.6825 81.8985 15.1739C82.0795 15.6393 82.1183 16.1048 82.0149 16.5703C81.9115 17.0099 81.6917 17.3849 81.3555 17.6952C81.0452 18.0055 80.6443 18.1865 80.153 18.2383C79.6875 18.2641 79.1703 18.096 78.6014 17.734C77.7997 17.2168 76.9334 16.8418 76.0025 16.6091C75.0715 16.3764 74.1276 16.26 73.1708 16.26C71.3347 16.26 69.7832 16.635 68.516 17.3849C67.2489 18.1348 66.2921 19.2209 65.6456 20.6432C64.9991 22.0655 64.6758 23.8111 64.6758 25.8799C64.6758 27.9228 64.9991 29.6684 65.6456 31.1165C66.2921 32.5647 67.2489 33.6637 68.516 34.4137C69.7832 35.1636 71.3347 35.5386 73.1708 35.5386C74.1535 35.5386 75.1232 35.4222 76.08 35.1895C77.0369 34.9309 77.942 34.543 78.7953 34.0258C79.3643 33.6896 79.8685 33.5473 80.3081 33.5991C80.7736 33.6249 81.1615 33.7801 81.4718 34.0645C81.7822 34.349 81.989 34.711 82.0925 35.1507C82.1959 35.5644 82.1701 36.004 82.0149 36.4695C81.8597 36.9091 81.5494 37.297 81.0839 37.6332C80.0495 38.3832 78.8083 38.965 77.3601 39.3788C75.9378 39.7667 74.4897 39.9606 73.0156 39.9606Z" fill="#0D7EE7"/>
<path d="M88.5971 39.883C87.8213 39.883 87.2265 39.6762 86.8127 39.2624C86.399 38.8228 86.1921 38.2021 86.1921 37.4005V14.3593C86.1921 13.5576 86.399 12.9499 86.8127 12.5362C87.2265 12.1224 87.8213 11.9155 88.5971 11.9155C89.3729 11.9155 89.9676 12.1224 90.3814 12.5362C90.821 12.9499 91.0408 13.5576 91.0408 14.3593V24.4059H90.4978C91.0667 23.0353 91.9459 22.0009 93.1355 21.3027C94.3509 20.5786 95.7215 20.2166 97.2472 20.2166C98.7729 20.2166 100.027 20.501 101.01 21.0699C101.993 21.6388 102.73 22.5052 103.221 23.6689C103.712 24.8067 103.958 26.2548 103.958 28.0133V37.4005C103.958 38.2021 103.751 38.8228 103.337 39.2624C102.923 39.6762 102.329 39.883 101.553 39.883C100.777 39.883 100.169 39.6762 99.7298 39.2624C99.316 38.8228 99.1091 38.2021 99.1091 37.4005V28.2461C99.1091 26.772 98.8247 25.6989 98.2557 25.0265C97.7127 24.3541 96.8593 24.018 95.6956 24.018C94.2733 24.018 93.1355 24.4705 92.2821 25.3756C91.4546 26.2548 91.0408 27.4315 91.0408 28.9055V37.4005C91.0408 39.0555 90.2262 39.883 88.5971 39.883Z" fill="#0D7EE7"/>
<path d="M115.128 39.9606C113.757 39.9606 112.529 39.702 111.443 39.1848C110.383 38.6418 109.542 37.9177 108.921 37.0126C108.327 36.1075 108.029 35.086 108.029 33.9482C108.029 32.5517 108.391 31.4527 109.115 30.651C109.839 29.8235 111.016 29.2287 112.645 28.8667C114.274 28.5047 116.46 28.3236 119.201 28.3236H121.14V31.1165H119.24C117.636 31.1165 116.356 31.1941 115.399 31.3493C114.443 31.5044 113.757 31.7759 113.343 32.1638C112.956 32.5259 112.762 33.0431 112.762 33.7154C112.762 34.5688 113.059 35.267 113.654 35.8101C114.249 36.3531 115.076 36.6247 116.136 36.6247C116.99 36.6247 117.74 36.4307 118.386 36.0428C119.059 35.6291 119.589 35.0731 119.977 34.3749C120.364 33.6766 120.558 32.875 120.558 31.9699V27.5091C120.558 26.2161 120.274 25.2851 119.705 24.7162C119.136 24.1473 118.179 23.8628 116.835 23.8628C116.085 23.8628 115.27 23.9533 114.391 24.1343C113.537 24.3153 112.632 24.6257 111.676 25.0653C111.184 25.298 110.745 25.3627 110.357 25.2592C109.995 25.1558 109.71 24.9489 109.503 24.6386C109.296 24.3024 109.193 23.9404 109.193 23.5525C109.193 23.1646 109.296 22.7896 109.503 22.4276C109.71 22.0397 110.059 21.7552 110.551 21.5742C111.74 21.0829 112.878 20.7337 113.964 20.5269C115.076 20.32 116.085 20.2166 116.99 20.2166C118.852 20.2166 120.377 20.501 121.567 21.0699C122.782 21.6388 123.687 22.5052 124.282 23.6689C124.877 24.8067 125.174 26.2807 125.174 28.0909V37.4005C125.174 38.2021 124.98 38.8228 124.593 39.2624C124.205 39.6762 123.649 39.883 122.925 39.883C122.201 39.883 121.632 39.6762 121.218 39.2624C120.83 38.8228 120.636 38.2021 120.636 37.4005V35.5386H120.946C120.765 36.4437 120.403 37.2324 119.86 37.9047C119.343 38.5512 118.684 39.0555 117.882 39.4176C117.08 39.7796 116.162 39.9606 115.128 39.9606Z" fill="#0D7EE7"/>
<path d="M132.501 39.8442C131.725 39.8442 131.13 39.6115 130.717 39.146C130.303 38.6805 130.096 38.034 130.096 37.2065V22.9706C130.096 22.1173 130.303 21.4708 130.717 21.0311C131.13 20.5657 131.725 20.3329 132.501 20.3329C133.277 20.3329 133.871 20.5657 134.285 21.0311C134.725 21.4708 134.945 22.1173 134.945 22.9706V37.2065C134.945 38.034 134.738 38.6805 134.324 39.146C133.91 39.6115 133.303 39.8442 132.501 39.8442ZM132.501 16.7255C131.596 16.7255 130.885 16.5057 130.367 16.066C129.876 15.6006 129.63 14.967 129.63 14.1653C129.63 13.3378 129.876 12.7042 130.367 12.2646C130.885 11.825 131.596 11.6052 132.501 11.6052C133.432 11.6052 134.143 11.825 134.634 12.2646C135.126 12.7042 135.371 13.3378 135.371 14.1653C135.371 14.967 135.126 15.6006 134.634 16.066C134.143 16.5057 133.432 16.7255 132.501 16.7255Z" fill="#0D7EE7"/>
<path d="M142.388 39.883C141.612 39.883 141.017 39.6762 140.603 39.2624C140.19 38.8228 139.983 38.2021 139.983 37.4005V22.7379C139.983 21.9362 140.19 21.3285 140.603 20.9148C141.017 20.501 141.599 20.2941 142.349 20.2941C143.099 20.2941 143.681 20.501 144.094 20.9148C144.508 21.3285 144.715 21.9362 144.715 22.7379V25.3756L144.288 24.4059C144.857 23.0353 145.737 22.0009 146.926 21.3027C148.142 20.5786 149.512 20.2166 151.038 20.2166C152.564 20.2166 153.818 20.501 154.801 21.0699C155.783 21.6388 156.52 22.5052 157.012 23.6689C157.503 24.8067 157.749 26.2548 157.749 28.0133V37.4005C157.749 38.2021 157.542 38.8228 157.128 39.2624C156.714 39.6762 156.119 39.883 155.344 39.883C154.568 39.883 153.96 39.6762 153.52 39.2624C153.107 38.8228 152.9 38.2021 152.9 37.4005V28.2461C152.9 26.772 152.615 25.6989 152.046 25.0265C151.503 24.3541 150.65 24.018 149.486 24.018C148.064 24.018 146.926 24.4705 146.073 25.3756C145.245 26.2548 144.832 27.4315 144.832 28.9055V37.4005C144.832 39.0555 144.017 39.883 142.388 39.883Z" fill="#0D7EE7"/>
<path d="M165.699 39.883C164.897 39.883 164.264 39.6632 163.798 39.2236C163.359 38.7581 163.139 38.0987 163.139 37.2453V14.8635C163.139 14.0102 163.359 13.3637 163.798 12.924C164.264 12.4586 164.923 12.2258 165.777 12.2258H179.314C179.987 12.2258 180.491 12.3939 180.827 12.7301C181.163 13.0663 181.331 13.5447 181.331 14.1653C181.331 14.8118 181.163 15.3161 180.827 15.6781C180.491 16.0143 179.987 16.1824 179.314 16.1824H168.104V23.9016H178.5C179.146 23.9016 179.637 24.0697 179.974 24.4059C180.336 24.742 180.517 25.2204 180.517 25.8411C180.517 26.4876 180.336 26.9919 179.974 27.3539C179.637 27.6901 179.146 27.8582 178.5 27.8582H168.104V37.2453C168.104 39.0038 167.302 39.883 165.699 39.883Z" fill="#0D7EE7"/>
<path d="M190.828 39.9606C189.251 39.9606 187.945 39.6762 186.91 39.1072C185.876 38.5125 185.1 37.6332 184.583 36.4695C184.092 35.3058 183.846 33.8577 183.846 32.1251V22.7379C183.846 21.9104 184.053 21.3027 184.467 20.9148C184.88 20.501 185.475 20.2941 186.251 20.2941C187.027 20.2941 187.622 20.501 188.035 20.9148C188.475 21.3027 188.695 21.9104 188.695 22.7379V32.2026C188.695 33.5473 188.966 34.543 189.509 35.1895C190.052 35.8359 190.919 36.1592 192.108 36.1592C193.401 36.1592 194.461 35.7196 195.289 34.8403C196.116 33.9352 196.53 32.7457 196.53 31.2717V22.7379C196.53 21.9104 196.737 21.3027 197.151 20.9148C197.565 20.501 198.159 20.2941 198.935 20.2941C199.711 20.2941 200.306 20.501 200.72 20.9148C201.159 21.3027 201.379 21.9104 201.379 22.7379V37.4005C201.379 39.0555 200.59 39.883 199.013 39.883C198.263 39.883 197.681 39.6762 197.267 39.2624C196.854 38.8228 196.647 38.2021 196.647 37.4005V34.4524L197.19 35.6161C196.647 37.0126 195.819 38.0858 194.707 38.8357C193.621 39.5856 192.328 39.9606 190.828 39.9606Z" fill="#0D7EE7"/>
<path d="M213.369 39.9606C212.257 39.9606 211.08 39.8442 209.839 39.6115C208.598 39.3788 207.486 38.9779 206.503 38.409C206.089 38.1504 205.792 37.853 205.611 37.5168C205.456 37.1548 205.391 36.8057 205.417 36.4695C205.469 36.1075 205.598 35.7972 205.805 35.5386C206.038 35.28 206.322 35.1119 206.658 35.0343C207.02 34.9567 207.408 35.0214 207.822 35.2282C208.856 35.7196 209.826 36.0687 210.731 36.2756C211.636 36.4566 212.529 36.5471 213.408 36.5471C214.649 36.5471 215.567 36.3402 216.162 35.9265C216.783 35.4868 217.093 34.9179 217.093 34.2197C217.093 33.6249 216.886 33.1724 216.472 32.8621C216.084 32.5259 215.49 32.2802 214.688 32.1251L210.809 31.388C209.206 31.0777 207.977 30.4959 207.124 29.6425C206.296 28.7633 205.883 27.6384 205.883 26.2678C205.883 25.0265 206.219 23.9533 206.891 23.0482C207.589 22.1431 208.546 21.4449 209.762 20.9536C210.977 20.4622 212.373 20.2166 213.951 20.2166C215.089 20.2166 216.149 20.3459 217.132 20.6044C218.14 20.8372 219.11 21.2122 220.041 21.7294C220.429 21.9362 220.687 22.2078 220.817 22.5439C220.972 22.8801 221.011 23.2292 220.933 23.5913C220.855 23.9275 220.7 24.2378 220.468 24.5222C220.235 24.7808 219.937 24.9489 219.575 25.0265C219.239 25.0782 218.851 25.0006 218.412 24.7938C217.61 24.38 216.834 24.0826 216.084 23.9016C215.36 23.7206 214.662 23.6301 213.99 23.6301C212.723 23.6301 211.779 23.8499 211.158 24.2895C210.563 24.7291 210.266 25.311 210.266 26.035C210.266 26.5781 210.447 27.0306 210.809 27.3927C211.171 27.7547 211.727 28.0004 212.477 28.1297L216.356 28.8667C218.037 29.177 219.304 29.7459 220.157 30.5735C221.036 31.401 221.476 32.5129 221.476 33.9094C221.476 35.7972 220.739 37.2841 219.265 38.3702C217.791 39.4305 215.826 39.9606 213.369 39.9606Z" fill="#0D7EE7"/>
<path d="M227.771 39.8442C226.995 39.8442 226.4 39.6115 225.987 39.146C225.573 38.6805 225.366 38.034 225.366 37.2065V22.9706C225.366 22.1173 225.573 21.4708 225.987 21.0311C226.4 20.5657 226.995 20.3329 227.771 20.3329C228.547 20.3329 229.142 20.5657 229.555 21.0311C229.995 21.4708 230.215 22.1173 230.215 22.9706V37.2065C230.215 38.034 230.008 38.6805 229.594 39.146C229.18 39.6115 228.573 39.8442 227.771 39.8442ZM227.771 16.7255C226.866 16.7255 226.155 16.5057 225.638 16.066C225.146 15.6006 224.901 14.967 224.901 14.1653C224.901 13.3378 225.146 12.7042 225.638 12.2646C226.155 11.825 226.866 11.6052 227.771 11.6052C228.702 11.6052 229.413 11.825 229.904 12.2646C230.396 12.7042 230.641 13.3378 230.641 14.1653C230.641 14.967 230.396 15.6006 229.904 16.066C229.413 16.5057 228.702 16.7255 227.771 16.7255Z" fill="#0D7EE7"/>
<path d="M243.903 39.9606C241.938 39.9606 240.231 39.5598 238.783 38.7581C237.335 37.9565 236.21 36.8186 235.408 35.3446C234.606 33.8447 234.206 32.0863 234.206 30.0692C234.206 28.5435 234.425 27.1858 234.865 25.9962C235.33 24.7808 235.99 23.7464 236.843 22.8931C237.697 22.0138 238.718 21.3544 239.908 20.9148C241.097 20.4493 242.429 20.2166 243.903 20.2166C245.868 20.2166 247.575 20.6174 249.023 21.419C250.471 22.2207 251.596 23.3585 252.398 24.8325C253.2 26.3066 253.6 28.0521 253.6 30.0692C253.6 31.5949 253.368 32.9655 252.902 34.1809C252.463 35.3963 251.816 36.4437 250.963 37.3229C250.109 38.1763 249.088 38.8357 247.898 39.3012C246.709 39.7408 245.377 39.9606 243.903 39.9606ZM243.903 36.2756C244.86 36.2756 245.7 36.0428 246.424 35.5774C247.148 35.1119 247.704 34.4266 248.092 33.5215C248.506 32.5905 248.713 31.4398 248.713 30.0692C248.713 28.0004 248.273 26.4617 247.394 25.4532C246.515 24.4188 245.351 23.9016 243.903 23.9016C242.946 23.9016 242.106 24.1343 241.382 24.5998C240.658 25.0394 240.089 25.7247 239.675 26.6557C239.287 27.5608 239.093 28.6986 239.093 30.0692C239.093 32.1121 239.533 33.6637 240.412 34.724C241.291 35.7584 242.455 36.2756 243.903 36.2756Z" fill="#0D7EE7"/>
<path d="M260.007 39.883C259.232 39.883 258.637 39.6762 258.223 39.2624C257.809 38.8228 257.603 38.2021 257.603 37.4005V22.7379C257.603 21.9362 257.809 21.3285 258.223 20.9148C258.637 20.501 259.219 20.2941 259.969 20.2941C260.719 20.2941 261.3 20.501 261.714 20.9148C262.128 21.3285 262.335 21.9362 262.335 22.7379V25.3756L261.908 24.4059C262.477 23.0353 263.356 22.0009 264.546 21.3027C265.761 20.5786 267.132 20.2166 268.658 20.2166C270.183 20.2166 271.438 20.501 272.42 21.0699C273.403 21.6388 274.14 22.5052 274.631 23.6689C275.123 24.8067 275.368 26.2548 275.368 28.0133V37.4005C275.368 38.2021 275.161 38.8228 274.748 39.2624C274.334 39.6762 273.739 39.883 272.963 39.883C272.188 39.883 271.58 39.6762 271.14 39.2624C270.726 38.8228 270.52 38.2021 270.52 37.4005V28.2461C270.52 26.772 270.235 25.6989 269.666 25.0265C269.123 24.3541 268.27 24.018 267.106 24.018C265.684 24.018 264.546 24.4705 263.693 25.3756C262.865 26.2548 262.451 27.4315 262.451 28.9055V37.4005C262.451 39.0555 261.637 39.883 260.007 39.883Z" fill="#0D7EE7"/>
<path d="M20.4015 0.721786C22.0684 -0.240596 24.1221 -0.240595 25.789 0.721786L43.4967 10.9453C45.1636 11.9077 46.1904 13.6863 46.1904 15.611V36.0582C46.1904 37.9829 45.1636 39.7615 43.4967 40.7239L25.789 50.9474C24.1221 51.9098 22.0684 51.9098 20.4015 50.9474L2.69374 40.7239C1.02685 39.7615 0 37.9829 0 36.0582V15.611C0 13.6863 1.02685 11.9077 2.69374 10.9453L20.4015 0.721786Z" fill="#0D7EE7"/>
<path fill-rule="evenodd" clip-rule="evenodd" d="M42.1498 13.2782L24.4421 3.05464C23.6086 2.57345 22.5818 2.57345 21.7483 3.05464L4.04061 13.2782C3.20717 13.7594 2.69374 14.6487 2.69374 15.611V36.0582C2.69374 37.0205 3.20717 37.9098 4.04061 38.391L21.7483 48.6146C22.5818 49.0958 23.6086 49.0958 24.4421 48.6146L42.1498 38.391C42.9832 37.9098 43.4967 37.0205 43.4967 36.0582V15.611C43.4967 14.6487 42.9832 13.7594 42.1498 13.2782ZM25.789 0.721786C24.1221 -0.240595 22.0684 -0.240596 20.4015 0.721786L2.69374 10.9453C1.02685 11.9077 0 13.6863 0 15.611V36.0582C0 37.9829 1.02685 39.7615 2.69374 40.7239L20.4015 50.9474C22.0684 51.9098 24.1221 51.9098 25.789 50.9474L43.4967 40.7239C45.1636 39.7615 46.1904 37.9829 46.1904 36.0582V15.611C46.1904 13.6863 45.1636 11.9077 43.4967 10.9453L25.789 0.721786Z" fill="#0D7EE7"/>
<path d="M20.4176 14.1905C22.0845 13.2281 24.1382 13.2281 25.8051 14.1905L31.8626 17.6878C33.5295 18.6502 34.5563 20.4287 34.5563 22.3535V29.3481C34.5563 31.2728 33.5295 33.0514 31.8626 34.0138L25.8051 37.511C24.1382 38.4734 22.0845 38.4734 20.4176 37.511L14.3601 34.0138C12.6932 33.0514 11.6664 31.2728 11.6664 29.3481V22.3535C11.6664 20.4287 12.6932 18.6502 14.3601 17.6878L20.4176 14.1905Z" fill="white" fill-opacity="0.4"/>
<path fill-rule="evenodd" clip-rule="evenodd" d="M30.5157 20.0206L24.4582 16.5234C23.6248 16.0422 22.5979 16.0422 21.7645 16.5234L15.707 20.0206C14.8735 20.5018 14.3601 21.3911 14.3601 22.3535V29.3481C14.3601 30.3104 14.8735 31.1997 15.707 31.6809L21.7645 35.1782C22.5979 35.6594 23.6248 35.6594 24.4582 35.1782L30.5157 31.6809C31.3491 31.1997 31.8626 30.3104 31.8626 29.3481V22.3535C31.8626 21.3911 31.3491 20.5018 30.5157 20.0206ZM25.8051 14.1905C24.1382 13.2281 22.0845 13.2281 20.4176 14.1905L14.3601 17.6878C12.6932 18.6502 11.6664 20.4287 11.6664 22.3535V29.3481C11.6664 31.2728 12.6932 33.0514 14.3601 34.0138L20.4176 37.511C22.0845 38.4734 24.1382 38.4734 25.8051 37.511L31.8626 34.0138C33.5295 33.0514 34.5563 31.2728 34.5563 29.3481V22.3535C34.5563 20.4287 33.5295 18.6502 31.8626 17.6878L25.8051 14.1905Z" fill="white"/>
</svg>
