<svg width="136" height="127" viewBox="0 0 136 127" fill="none" xmlns="http://www.w3.org/2000/svg">
<path d="M100.203 96.4394L31.9175 114.024C29.6012 114.617 27.1439 114.268 25.0849 113.052C23.0258 111.837 21.5331 109.854 20.9341 107.539L0.282755 27.3427C-0.310937 25.0264 0.0384175 22.5692 1.25418 20.5101C2.46994 18.451 4.45282 16.9583 6.7678 16.3594L70.2965 0L86.5568 7.27922L106.688 85.456C107.282 87.7724 106.933 90.2296 105.717 92.2887C104.501 94.3477 102.518 95.8405 100.203 96.4394V96.4394Z" fill="#E6EEF7"/>
<path d="M7.41527 18.8736C5.76672 19.3001 4.35466 20.3631 3.48889 21.8294C2.62312 23.2957 2.37434 25.0456 2.79712 26.6951L23.4485 106.891C23.875 108.54 24.938 109.952 26.4043 110.817C27.8706 111.683 29.6205 111.932 31.27 111.509L99.5557 93.9249C101.204 93.4984 102.616 92.4354 103.482 90.9691C104.348 89.5027 104.597 87.7529 104.174 86.1034L84.3543 9.13788L70.0644 2.74072L7.41527 18.8736Z" fill="white"/>
<path d="M86.3833 7.69284L75.8152 10.4143C75.0437 10.6129 74.2249 10.497 73.5388 10.0919C72.8528 9.68687 72.3558 9.02589 72.1571 8.25438L70.1471 0.448912C70.1383 0.41474 70.1393 0.378779 70.15 0.345154C70.1607 0.311529 70.1807 0.281602 70.2076 0.258803C70.2346 0.236004 70.2674 0.221257 70.3023 0.216253C70.3373 0.211249 70.3729 0.21619 70.4051 0.230511L86.4127 7.33945C86.4483 7.35527 86.4781 7.38179 86.498 7.41532C86.5179 7.44885 86.5268 7.48773 86.5236 7.52658C86.5203 7.56542 86.5051 7.6023 86.48 7.63209C86.4549 7.66189 86.4211 7.68312 86.3833 7.69284V7.69284Z" fill="#DBE9F9"/>
<path d="M80.8235 76.1786L49.734 84.1845C49.543 84.2337 49.3441 84.2448 49.1488 84.2171C48.9536 84.1895 48.7656 84.1236 48.5958 84.0233C48.4259 83.923 48.2775 83.7903 48.159 83.6327C48.0404 83.475 47.9541 83.2956 47.9049 83.1046C47.8557 82.9136 47.8447 82.7147 47.8723 82.5194C47.9 82.3242 47.9658 82.1362 48.0661 81.9664C48.1664 81.7965 48.2991 81.6481 48.4568 81.5296C48.6144 81.411 48.7939 81.3247 48.9849 81.2755L80.0744 73.2696C80.2654 73.2204 80.4642 73.2094 80.6595 73.237C80.8548 73.2647 81.0427 73.3305 81.2126 73.4308C81.3824 73.5311 81.5308 73.6638 81.6494 73.8215C81.7679 73.9791 81.8542 74.1585 81.9034 74.3496C81.9526 74.5406 81.9637 74.7394 81.936 74.9347C81.9084 75.13 81.8425 75.3179 81.7422 75.4877C81.642 75.6576 81.5092 75.806 81.3516 75.9245C81.1939 76.0431 81.0145 76.1294 80.8235 76.1786Z" fill="#CCCCCC"/>
<path d="M88.0873 79.5425L50.9981 89.0934C50.6123 89.1928 50.2029 89.1348 49.8599 88.9323C49.5169 88.7297 49.2684 88.3992 49.169 88.0135C49.0697 87.6277 49.1277 87.2183 49.3302 86.8753C49.5327 86.5323 49.8632 86.2838 50.249 86.1845L87.3382 76.6335C87.7238 76.5346 88.1329 76.5928 88.4757 76.7954C88.8184 76.998 89.0667 77.3283 89.1659 77.7138C89.2652 78.0993 89.2074 78.5085 89.0051 78.8514C88.8029 79.1943 88.4727 79.4429 88.0873 79.5425V79.5425Z" fill="#CCCCCC"/>
<path d="M37.045 93.827C39.9768 93.827 42.3535 91.4503 42.3535 88.5185C42.3535 85.5867 39.9768 83.21 37.045 83.21C34.1132 83.21 31.7365 85.5867 31.7365 88.5185C31.7365 91.4503 34.1132 93.827 37.045 93.827Z" fill="#DBE9F9"/>
<path d="M77.5177 62.2858L36.2278 72.9145C35.0345 73.2202 33.7687 73.0401 32.708 72.4137C31.6473 71.7873 30.8784 70.7658 30.57 69.5732L21.9171 35.9589C21.6114 34.7656 21.7915 33.4998 22.4179 32.4391C23.0443 31.3784 24.0658 30.6095 25.2584 30.3011L66.5484 19.6724C67.7417 19.3667 69.0075 19.5468 70.0682 20.1732C71.1289 20.7996 71.8978 21.8211 72.2062 23.0137L80.859 56.628C81.1648 57.8213 80.9847 59.0871 80.3583 60.1478C79.7319 61.2085 78.7103 61.9774 77.5177 62.2858Z" fill="white"/>
<path d="M77.5177 62.2858L36.2278 72.9145C35.0345 73.2202 33.7687 73.0401 32.708 72.4137C31.6473 71.7873 30.8784 70.7658 30.57 69.5732L21.9171 35.9589C21.6114 34.7656 21.7915 33.4998 22.4179 32.4391C23.0443 31.3784 24.0658 30.6095 25.2584 30.3011L66.5484 19.6724C67.7417 19.3667 69.0075 19.5468 70.0682 20.1732C71.1289 20.7996 71.8978 21.8211 72.2062 23.0137L80.859 56.628C81.1648 57.8213 80.9847 59.0871 80.3583 60.1478C79.7319 61.2085 78.7103 61.9774 77.5177 62.2858ZM25.3947 30.8305C24.3424 31.1026 23.441 31.781 22.8883 32.7169C22.3356 33.6528 22.1767 34.7697 22.4465 35.8226L31.0993 69.4369C31.3715 70.4892 32.0499 71.3906 32.9858 71.9433C33.9217 72.496 35.0386 72.6549 36.0915 72.3851L77.3815 61.7564C78.4338 61.4843 79.3352 60.8058 79.8879 59.8699C80.4406 58.9341 80.5995 57.8171 80.3297 56.7642L71.6768 23.15C71.4047 22.0977 70.7263 21.1963 69.7904 20.6436C68.8545 20.0909 67.7376 19.932 66.6847 20.2018L25.3947 30.8305Z" fill="#E6EEF7"/>
<path d="M64.4537 30.9749L43.6152 36.3391C43.433 36.3899 43.2383 36.3697 43.0704 36.2825C42.9026 36.1953 42.7741 36.0477 42.7109 35.8694C42.6816 35.7762 42.6714 35.6781 42.6812 35.5809C42.691 35.4837 42.7205 35.3896 42.7679 35.3042C42.8153 35.2188 42.8796 35.1439 42.9569 35.0842C43.0341 35.0244 43.1228 34.9811 43.2173 34.9567L64.4297 29.4963C65.2865 29.9305 65.0611 30.8185 64.4534 30.975L64.4537 30.9749Z" fill="#E6EEF7"/>
<path d="M65.3946 34.6302L44.5561 39.9943C44.3739 40.0452 44.1792 40.025 44.0113 39.9378C43.8435 39.8506 43.715 39.7029 43.6519 39.5246C43.6225 39.4315 43.6124 39.3333 43.6222 39.2362C43.6319 39.139 43.6614 39.0448 43.7088 38.9594C43.7562 38.874 43.8205 38.7992 43.8978 38.7394C43.975 38.6797 44.0637 38.6363 44.1583 38.612L65.3706 33.1516C66.2275 33.5858 66.002 34.4738 65.3944 34.6302L65.3946 34.6302Z" fill="#E6EEF7"/>
<path d="M40.587 43.2351L34.2273 44.8722C34.0196 44.9254 33.7993 44.8941 33.6146 44.785C33.43 44.676 33.2962 44.4982 33.2425 44.2906L31.3106 36.7856C31.2574 36.5779 31.2887 36.3576 31.3977 36.1729C31.5068 35.9883 31.6846 35.8545 31.8922 35.8008L38.2519 34.1637C38.4596 34.1106 38.6799 34.1419 38.8645 34.251C39.0491 34.36 39.183 34.5378 39.2367 34.7453L41.1686 42.2503C41.2219 42.458 41.1905 42.6783 41.0815 42.863C40.9724 43.0476 40.7946 43.1814 40.587 43.2351Z" fill="#E6EEF7"/>
<path d="M67.2605 42.1298L35.4571 50.3165C35.2749 50.3673 35.0802 50.3471 34.9124 50.2599C34.7445 50.1727 34.616 50.0251 34.5529 49.8468C34.5235 49.7536 34.5134 49.6555 34.5232 49.5583C34.533 49.4611 34.5625 49.367 34.6099 49.2816C34.6572 49.1962 34.7215 49.1213 34.7988 49.0616C34.8761 49.0018 34.9647 48.9585 35.0593 48.9341L67.2367 40.6511C68.0936 41.0853 67.8681 41.9733 67.2605 42.1298L67.2605 42.1298Z" fill="#E6EEF7"/>
<path d="M68.2017 45.7862L36.3983 53.9729C36.2161 54.0238 36.0214 54.0036 35.8536 53.9164C35.6857 53.8292 35.5572 53.6815 35.4941 53.5032C35.4647 53.4101 35.4546 53.312 35.4644 53.2148C35.4742 53.1176 35.5037 53.0234 35.551 52.938C35.5984 52.8526 35.6627 52.7778 35.74 52.718C35.8173 52.6583 35.9059 52.615 36.0005 52.5906L68.1779 44.3076C69.0348 44.7418 68.8093 45.6298 68.2017 45.7862V45.7862Z" fill="#E6EEF7"/>
<path d="M69.1423 49.4401L37.3389 57.6267C37.1567 57.6776 36.962 57.6574 36.7942 57.5702C36.6263 57.483 36.4978 57.3354 36.4347 57.1571C36.4053 57.0639 36.3952 56.9658 36.405 56.8686C36.4148 56.7714 36.4442 56.6773 36.4916 56.5919C36.539 56.5064 36.6033 56.4316 36.6806 56.3719C36.7578 56.3121 36.8465 56.2688 36.9411 56.2444L69.1185 47.9614C69.9754 48.3956 69.7499 49.2836 69.1423 49.4401V49.4401Z" fill="#E6EEF7"/>
<path d="M70.0834 53.0961L38.28 61.2828C38.0978 61.3336 37.9031 61.3134 37.7353 61.2262C37.5674 61.139 37.4389 60.9914 37.3758 60.8131C37.3464 60.7199 37.3363 60.6218 37.3461 60.5246C37.3559 60.4274 37.3853 60.3333 37.4327 60.2478C37.4801 60.1624 37.5444 60.0876 37.6217 60.0279C37.699 59.9681 37.7876 59.9248 37.8822 59.9004L70.0596 51.6174C70.9165 52.0516 70.691 52.9396 70.0834 53.0961L70.0834 53.0961Z" fill="#E6EEF7"/>
<path d="M71.024 56.7501L39.2206 64.9368C39.0385 64.9877 38.8438 64.9675 38.6759 64.8803C38.5081 64.7931 38.3796 64.6454 38.3164 64.4671C38.287 64.374 38.2769 64.2758 38.2867 64.1786C38.2965 64.0815 38.326 63.9873 38.3734 63.9019C38.4208 63.8165 38.485 63.7416 38.5623 63.6819C38.6396 63.6222 38.7282 63.5788 38.8228 63.5545L71.0003 55.2715C71.8571 55.7057 71.6317 56.5937 71.024 56.7501V56.7501Z" fill="#E6EEF7"/>
<path d="M37.4366 90.3791C37.321 90.4091 37.1988 90.4007 37.0884 90.3551L37.0816 90.3523L35.6354 89.7392C35.5683 89.7108 35.5075 89.6694 35.4564 89.6175C35.4052 89.5655 35.3649 89.504 35.3376 89.4364C35.3102 89.3689 35.2965 89.2966 35.2972 89.2237C35.2978 89.1508 35.3128 89.0788 35.3414 89.0117C35.3699 88.9446 35.4113 88.8838 35.4634 88.8328C35.5154 88.7818 35.577 88.7415 35.6446 88.7143C35.7122 88.6871 35.7845 88.6735 35.8574 88.6743C35.9303 88.675 36.0023 88.6902 36.0693 88.7188L37.0064 89.1174L38.2343 86.2287C38.2628 86.1617 38.3042 86.101 38.3561 86.05C38.4081 85.9991 38.4696 85.9588 38.537 85.9316C38.6045 85.9044 38.6767 85.8907 38.7495 85.8914C38.8223 85.8921 38.8942 85.9071 38.9612 85.9355L38.9614 85.9356L38.954 85.9545L38.9617 85.9355C39.0968 85.9932 39.2036 86.1021 39.2586 86.2384C39.3135 86.3747 39.3121 86.5273 39.2547 86.6626L37.8101 90.059C37.7766 90.1373 37.7255 90.2069 37.6608 90.2622C37.5961 90.3176 37.5195 90.3574 37.437 90.3783L37.4366 90.3791Z" fill="white"/>
<path d="M126.395 127H55.8815C53.4903 126.997 51.1978 126.046 49.5069 124.355C47.8161 122.665 46.865 120.372 46.8623 117.981V35.1686C46.865 32.7774 47.8161 30.4849 49.5069 28.794C51.1978 27.1032 53.4903 26.1521 55.8815 26.1494H121.483L135.414 37.2536V117.981C135.411 120.372 134.46 122.665 132.769 124.355C131.079 126.046 128.786 126.997 126.395 127V127Z" fill="#DBE9F9"/>
<path d="M55.8814 28.7458C54.1786 28.7478 52.5461 29.4251 51.342 30.6291C50.1379 31.8332 49.4606 33.4658 49.4587 35.1686V117.981C49.4606 119.684 50.1379 121.316 51.342 122.52C52.5461 123.724 54.1786 124.402 55.8814 124.404H126.395C128.098 124.402 129.73 123.724 130.934 122.52C132.138 121.316 132.816 119.684 132.818 117.981V38.5045L120.574 28.7458H55.8814Z" fill="white"/>
<path d="M112.68 52.8254H80.5763C80.1779 52.8254 79.7959 52.6672 79.5142 52.3855C79.2326 52.1038 79.0743 51.7218 79.0743 51.3235C79.0743 50.9251 79.2326 50.5431 79.5142 50.2614C79.7959 49.9798 80.1779 49.8215 80.5763 49.8215H112.68C113.078 49.8215 113.46 49.9798 113.742 50.2614C114.024 50.5431 114.182 50.9251 114.182 51.3235C114.182 51.7218 114.024 52.1038 113.742 52.3855C113.46 52.6672 113.078 52.8254 112.68 52.8254V52.8254Z" fill="#0D7EE7"/>
<path d="M118.875 57.8945H80.5762C80.1782 57.8939 79.7967 57.7355 79.5155 57.4539C79.2343 57.1723 79.0763 56.7905 79.0763 56.3926C79.0763 55.9946 79.2343 55.6128 79.5155 55.3312C79.7967 55.0496 80.1782 54.8912 80.5762 54.8906H118.875C119.073 54.8904 119.268 54.929 119.451 55.0044C119.633 55.0797 119.799 55.1903 119.939 55.3298C120.078 55.4693 120.189 55.635 120.265 55.8173C120.341 55.9997 120.379 56.1951 120.379 56.3926C120.379 56.59 120.341 56.7854 120.265 56.9678C120.189 57.1501 120.078 57.3158 119.939 57.4553C119.799 57.5948 119.633 57.7054 119.451 57.7807C119.268 57.8561 119.073 57.8948 118.875 57.8945V57.8945Z" fill="#0D7EE7"/>
<path d="M118.876 77.6072H80.5775C80.1792 77.6072 79.7972 77.7654 79.5155 78.0471C79.2339 78.3287 79.0757 78.7107 79.0757 79.109C79.0757 79.5073 79.2339 79.8893 79.5155 80.171C79.7972 80.4526 80.1792 80.6108 80.5775 80.6108H118.876C119.274 80.6108 119.656 80.4526 119.938 80.171C120.22 79.8893 120.378 79.5073 120.378 79.109C120.378 78.7107 120.22 78.3287 119.938 78.0471C119.656 77.7654 119.274 77.6072 118.876 77.6072Z" fill="#E6EEF7"/>
<rect x="78.9828" y="72.4268" width="19.6782" height="3.00639" rx="1.50319" fill="#0D7EE7"/>
<rect x="96.4745" y="72.4268" width="17.765" height="3.00639" rx="1.50319" fill="#E6EEF7"/>
<rect x="78.9828" y="77.6194" width="19.6782" height="3.00639" rx="1.50319" fill="#0D7EE7"/>
<path d="M112.68 99.6604H80.5763C80.1779 99.6604 79.7959 99.5021 79.5142 99.2204C79.2326 98.9388 79.0743 98.5568 79.0743 98.1584C79.0743 97.7601 79.2326 97.3781 79.5142 97.0964C79.7959 96.8147 80.1779 96.6565 80.5763 96.6565H112.68C113.078 96.6565 113.46 96.8147 113.742 97.0964C114.024 97.3781 114.182 97.7601 114.182 98.1584C114.182 98.5568 114.024 98.9388 113.742 99.2204C113.46 99.5021 113.078 99.6604 112.68 99.6604V99.6604Z" fill="#E6EEF7"/>
<path d="M118.875 104.729H80.5762C80.1782 104.729 79.7967 104.57 79.5155 104.289C79.2343 104.007 79.0763 103.626 79.0763 103.228C79.0763 102.83 79.2343 102.448 79.5155 102.166C79.7967 101.885 80.1782 101.726 80.5762 101.726H118.875C119.073 101.725 119.268 101.764 119.451 101.839C119.633 101.915 119.799 102.025 119.939 102.165C120.078 102.304 120.189 102.47 120.265 102.652C120.341 102.835 120.379 103.03 120.379 103.228C120.379 103.425 120.341 103.62 120.265 103.803C120.189 103.985 120.078 104.151 119.939 104.29C119.799 104.43 119.633 104.54 119.451 104.616C119.268 104.691 119.073 104.73 118.875 104.729Z" fill="#E6EEF7"/>
<path d="M67.2074 59.1666C70.1392 59.1666 72.5159 56.7899 72.5159 53.8581C72.5159 50.9263 70.1392 48.5496 67.2074 48.5496C64.2756 48.5496 61.8989 50.9263 61.8989 53.8581C61.8989 56.7899 64.2756 59.1666 67.2074 59.1666Z" fill="#0D7EE7"/>
<path d="M66.6814 55.8831C66.562 55.8833 66.4457 55.8446 66.3502 55.773L66.3442 55.7686L65.0967 54.8142C65.0387 54.77 64.99 54.7147 64.9535 54.6517C64.9169 54.5886 64.8931 54.5189 64.8835 54.4467C64.8738 54.3744 64.8786 54.301 64.8974 54.2305C64.9162 54.1601 64.9487 54.094 64.993 54.0362C65.0374 53.9783 65.0927 53.9298 65.1559 53.8933C65.219 53.8569 65.2887 53.8332 65.361 53.8238C65.4333 53.8143 65.5068 53.8192 65.5772 53.8381C65.6476 53.8571 65.7135 53.8897 65.7713 53.9342L66.5794 54.5539L68.4889 52.0627C68.5332 52.0049 68.5884 51.9565 68.6514 51.9201C68.7144 51.8836 68.784 51.86 68.8561 51.8505C68.9283 51.8409 69.0016 51.8457 69.0719 51.8645C69.1422 51.8833 69.2081 51.9158 69.2659 51.9601L69.266 51.9602L69.2542 51.9767L69.2664 51.9602C69.3829 52.0498 69.4591 52.1819 69.4783 52.3276C69.4975 52.4733 69.4582 52.6206 69.3689 52.7373L67.1228 55.6662C67.0709 55.7337 67.0041 55.7883 66.9276 55.8258C66.8511 55.8633 66.767 55.8827 66.6819 55.8824L66.6814 55.8831Z" fill="white"/>
<path d="M73.0615 76.5741C73.0618 77.2713 72.9247 77.9618 72.6581 78.606C72.3915 79.2502 72.0006 79.8356 71.5077 80.3287C71.0149 80.8219 70.4297 81.2131 69.7856 81.48C69.1415 81.747 68.4511 81.8844 67.7539 81.8845C67.7083 81.8854 67.6627 81.8836 67.6173 81.879C66.5735 81.8523 65.5608 81.5183 64.7059 80.9188C63.851 80.3194 63.1918 79.4811 62.8109 78.5089C62.4301 77.5367 62.3443 76.4738 62.5645 75.4532C62.7847 74.4325 63.301 73.4995 64.0489 72.7708C64.7967 72.0421 65.7428 71.5502 66.7688 71.3565C67.7948 71.1628 68.8552 71.2761 69.8172 71.682C70.7791 72.088 71.6 72.7686 72.1771 73.6388C72.7542 74.509 73.0618 75.53 73.0615 76.5741V76.5741Z" fill="#CCCCCC"/>
<path d="M67.2074 106.002C70.1392 106.002 72.5159 103.625 72.5159 100.693C72.5159 97.7612 70.1392 95.3845 67.2074 95.3845C64.2756 95.3845 61.8989 97.7612 61.8989 100.693C61.8989 103.625 64.2756 106.002 67.2074 106.002Z" fill="#E6EEF7"/>
<path d="M135.143 37.6111H124.23C123.433 37.6111 122.669 37.2946 122.106 36.7313C121.543 36.168 121.226 35.4039 121.226 34.6072V26.5471C121.226 26.5118 121.236 26.4773 121.255 26.4474C121.274 26.4175 121.3 26.3935 121.332 26.3781C121.364 26.3627 121.399 26.3566 121.434 26.3605C121.469 26.3644 121.503 26.378 121.53 26.4L135.259 37.2762C135.29 37.3004 135.312 37.3335 135.323 37.3709C135.334 37.4084 135.333 37.4483 135.32 37.4851C135.307 37.5219 135.283 37.5538 135.252 37.5764C135.22 37.599 135.182 37.6111 135.143 37.6111Z" fill="#CFE3F9"/>
<path d="M73.0615 76.5742C73.0618 77.2714 72.9247 77.9618 72.6581 78.6061C72.3915 79.2503 72.0006 79.8357 71.5077 80.3288C71.0148 80.8219 70.4297 81.2131 69.7856 81.4801C69.1415 81.747 68.4511 81.8845 67.7539 81.8846C66.2739 81.8848 65.0895 81.177 65.0441 81.1724C64.3583 79.4619 64.8647 77.6771 65.0441 75.8429C65.2234 74.0087 67.6435 72.8857 68.6476 71.3403C69.8825 71.552 71.0027 72.1934 71.8104 73.1511C72.6181 74.1089 73.0613 75.3213 73.0615 76.5742Z" fill="#0D7EE7"/>
<path d="M127.81 108.663C127.462 109.233 126.901 109.642 126.252 109.799C125.602 109.956 124.917 109.849 124.346 109.501L94.9489 91.5799C94.6665 91.4077 94.4207 91.1816 94.2256 90.9145C94.0306 90.6473 93.8901 90.3444 93.8122 90.023C93.7343 89.7016 93.7205 89.368 93.7716 89.0413C93.8227 88.7146 93.9376 88.4011 94.1099 88.1188C94.2822 87.8364 94.5085 87.5908 94.7758 87.3959C95.0431 87.2009 95.3461 87.0605 95.6677 86.9827C95.9893 86.9048 96.3231 86.891 96.65 86.9421C96.9769 86.9931 97.2906 87.108 97.573 87.2802L126.971 105.202C127.541 105.549 127.95 106.11 128.107 106.759C128.265 107.408 128.158 108.093 127.81 108.663V108.663Z" fill="#CEDDEE"/>
<path d="M98.4433 90.8842C96.3599 94.2992 93.3104 97.0197 89.6805 98.7019C86.0506 100.384 82.0032 100.952 78.0502 100.335C74.0973 99.7171 70.4163 97.9415 67.4727 95.2323C64.5291 92.5231 62.4552 89.0021 61.5132 85.1145C60.5711 81.2269 60.8033 77.1472 62.1803 73.3916C63.5574 69.6359 66.0174 66.3728 69.2493 64.0149C72.4813 61.657 76.34 60.3103 80.3375 60.145C84.335 59.9797 88.2918 61.0032 91.7074 63.0862C96.2829 65.8836 99.5618 70.3813 100.825 75.5927C102.087 80.804 101.231 86.3033 98.4433 90.8842ZM68.221 72.4536C66.6585 75.0149 65.8907 77.9818 66.0147 80.9793C66.1387 83.9768 67.1489 86.8702 68.9177 89.2937C70.6865 91.7171 73.1343 93.5618 75.9517 94.5943C78.769 95.6269 81.8294 95.801 84.7457 95.0946C87.662 94.3882 90.3034 92.8331 92.3357 90.6259C94.368 88.4187 95.7 85.6585 96.1633 82.6944C96.6266 79.7303 96.2003 76.6954 94.9384 73.9735C93.6765 71.2517 91.6357 68.965 89.0739 67.4028C85.6376 65.3125 81.5122 64.6703 77.6029 65.6172C73.6935 66.5641 70.3195 69.0227 68.221 72.4536V72.4536Z" fill="#CEDDEE"/>
</svg>
