<svg width="13" height="13" viewBox="0 0 13 13" fill="none" xmlns="http://www.w3.org/2000/svg">
<path d="M6.49616 0C10.087 0 12.9974 2.91049 12.9974 6.50128C12.9974 10.0921 10.087 13 6.49872 13C2.90793 13 1.68426e-06 10.0895 1.68426e-06 6.50128C-0.00255586 2.91049 2.90793 0 6.49616 0Z" fill="#8247E5"/>
<path d="M8.62656 5.08442C8.47055 4.99491 8.27106 4.99491 8.09459 5.08442L6.85162 5.821L6.00764 6.28903L4.78769 7.02304C4.63168 7.11256 4.43219 7.11256 4.25572 7.02304L3.30175 6.44248C3.14574 6.35297 3.03577 6.17394 3.03577 5.97445V4.85936C3.03577 4.68033 3.12528 4.50386 3.30175 4.39133L4.25572 3.83378C4.41173 3.74427 4.61122 3.74427 4.78769 3.83378L5.74165 4.41435C5.89766 4.50386 6.00764 4.68289 6.00764 4.88238V5.61895L6.85162 5.1279V4.37087C6.85162 4.19184 6.76211 4.01537 6.58564 3.90284L4.8107 2.85424C4.65469 2.76473 4.45521 2.76473 4.27873 2.85424L2.46032 3.92586C2.28385 4.01537 2.19434 4.1944 2.19434 4.37087V6.4655C2.19434 6.64453 2.28385 6.821 2.46032 6.93353L4.25827 7.98212C4.41428 8.07164 4.61377 8.07164 4.79024 7.98212L6.01019 7.26857L6.85418 6.77752L8.07413 6.06396C8.23014 5.97445 8.42963 5.97445 8.6061 6.06396L9.56006 6.62151C9.71607 6.71102 9.82605 6.89005 9.82605 7.08954V8.20463C9.82605 8.38366 9.73653 8.56013 9.56006 8.67266L8.62912 9.2302C8.47311 9.31972 8.27362 9.31972 8.09715 9.2302L7.14063 8.67266C6.98462 8.58314 6.87464 8.40412 6.87464 8.20463V7.49107L6.03065 7.98212V8.71869C6.03065 8.89772 6.12017 9.07419 6.29664 9.18673L8.09459 10.2353C8.2506 10.3248 8.45009 10.3248 8.62656 10.2353L10.4245 9.18673C10.5805 9.09721 10.6905 8.91818 10.6905 8.71869V6.60105C10.6905 6.42202 10.601 6.24555 10.4245 6.13302L8.62656 5.08442Z" fill="white"/>
</svg>
