<svg width="88" height="88" viewBox="0 0 88 88" fill="none" xmlns="http://www.w3.org/2000/svg">
<path d="M88 44C88 68.3005 68.3005 88 44 88C19.6995 88 0 68.3005 0 44C0 19.6995 19.6995 0 44 0C68.3005 0 88 19.6995 88 44ZM4.4 44C4.4 65.8705 22.1295 83.6 44 83.6C65.8705 83.6 83.6 65.8705 83.6 44C83.6 22.1295 65.8705 4.4 44 4.4C22.1295 4.4 4.4 22.1295 4.4 44Z" fill="#29C195"/>
<path d="M60.9761 32.4395C62.0073 33.3914 62.0073 35.0572 60.9761 36.0092L40.6684 56.3169C39.7165 57.3481 38.0506 57.3481 37.0987 56.3169L26.9448 46.163C25.9136 45.2111 25.9136 43.5452 26.9448 42.5933C27.8967 41.562 29.5626 41.562 30.5145 42.5933L38.8439 50.9226L57.4064 32.4395C58.3583 31.4082 60.0242 31.4082 60.9761 32.4395Z" fill="#29C195"/>
</svg>
