<svg width="13" height="13" viewBox="0 0 13 13" fill="none" xmlns="http://www.w3.org/2000/svg">
<g clip-path="url(#clip0_9_590)">
<path d="M6.5 13C10.1021 13 13 10.1021 13 6.5C13 2.8979 10.1021 0 6.5 0C2.8979 0 0 2.8979 0 6.5C0 10.1021 2.8979 13 6.5 13Z" fill="#2775CA"/>
<path d="M8.28759 7.5292C8.28759 6.5813 7.71884 6.2563 6.58134 6.12091C5.76884 6.01255 5.60634 5.79591 5.60634 5.4167C5.60634 5.03749 5.8772 4.7938 6.41884 4.7938C6.90634 4.7938 7.1772 4.9563 7.31259 5.36255C7.3397 5.4438 7.42095 5.49795 7.5022 5.49795H7.93549C8.04384 5.49795 8.12509 5.4167 8.12509 5.30841V5.2813C8.01674 4.68545 7.52924 4.22505 6.90634 4.17091V3.52091C6.90634 3.41255 6.82509 3.3313 6.6897 3.3042H6.28345C6.17509 3.3042 6.09384 3.38545 6.06674 3.52091V4.1438C5.25424 4.25216 4.7397 4.7938 4.7397 5.47091C4.7397 6.36466 5.28134 6.7167 6.41884 6.85216C7.1772 6.98755 7.42095 7.15005 7.42095 7.58341C7.42095 8.01676 7.04174 8.31466 6.5272 8.31466C5.82299 8.31466 5.57924 8.0167 5.49799 7.61045C5.47095 7.50216 5.3897 7.44795 5.30845 7.44795H4.84799C4.7397 7.44795 4.65845 7.5292 4.65845 7.63755V7.66466C4.76674 8.3417 5.20009 8.8292 6.09384 8.96466V9.61466C6.09384 9.72295 6.17509 9.8042 6.31049 9.8313H6.71674C6.82509 9.8313 6.90634 9.75005 6.93345 9.61466V8.96466C7.74595 8.8292 8.28759 8.26045 8.28759 7.5292Z" fill="white"/>
<path d="M5.11879 10.3728C3.00629 9.6145 1.92294 7.25825 2.7084 5.17279C3.11465 4.03529 4.00839 3.16865 5.11879 2.7624C5.22715 2.70825 5.28129 2.627 5.28129 2.49154V2.1124C5.28129 2.00404 5.22715 1.92279 5.11879 1.89575C5.09169 1.89575 5.03754 1.89575 5.01044 1.92279C2.43754 2.73529 1.02918 5.47075 1.84168 8.04365C2.32918 9.56029 3.49379 10.7249 5.01044 11.2124C5.11879 11.2665 5.22715 11.2124 5.25419 11.104C5.28129 11.077 5.28129 11.0499 5.28129 10.9958V10.6165C5.28129 10.5353 5.20004 10.427 5.11879 10.3728ZM7.98965 1.92279C7.88129 1.86865 7.77294 1.92279 7.7459 2.03115C7.71879 2.05825 7.71879 2.08529 7.71879 2.1395V2.51865C7.71879 2.627 7.80004 2.73529 7.88129 2.7895C9.99379 3.54779 11.0771 5.90404 10.2917 7.9895C9.88544 9.127 8.99169 9.99365 7.88129 10.3999C7.77294 10.454 7.71879 10.5353 7.71879 10.6708V11.0499C7.71879 11.1583 7.77294 11.2395 7.88129 11.2665C7.9084 11.2665 7.96254 11.2665 7.98965 11.2395C10.5625 10.427 11.9709 7.69154 11.1584 5.11865C10.6709 3.5749 9.47919 2.41029 7.98965 1.92279Z" fill="white"/>
</g>
<defs>
<clipPath id="clip0_9_590">
<rect width="13" height="13" fill="white"/>
</clipPath>
</defs>
</svg>
