<svg width="13" height="13" viewBox="0 0 13 13" fill="none" xmlns="http://www.w3.org/2000/svg">
<g clip-path="url(#clip0_1_2689)">
<path d="M6.5 0C10.0897 0 13 2.91031 13 6.5C13 10.0897 10.0896 13 6.5 13C2.91044 13 0 10.0905 0 6.5C0 2.90953 2.90992 0 6.5 0Z" fill="#53AE94"/>
<path d="M7.30226 5.63393V4.66699H9.51343V3.1937H3.49235V4.66699H5.70378V5.63315C3.90653 5.7157 2.55518 6.07164 2.55518 6.49804C2.55518 6.92444 3.90718 7.28038 5.70378 7.36345V10.4607H7.30278V7.36319C9.09678 7.28038 10.4454 6.9247 10.4454 6.49869C10.4454 6.07267 9.09678 5.717 7.30278 5.63419M7.30278 7.10085V7.10006C7.25767 7.10293 7.02588 7.11684 6.50978 7.11684C6.09716 7.11684 5.80687 7.10514 5.70456 7.09981V7.10111C4.11674 7.03078 2.93153 6.75427 2.93153 6.42341C2.93153 6.09257 4.11687 5.81645 5.70456 5.74599V6.82564C5.80856 6.83279 6.106 6.85034 6.51654 6.85034C7.00962 6.85034 7.25754 6.8298 7.30304 6.82564V5.74599C8.88774 5.81658 10.0702 6.09334 10.0702 6.42302C10.0702 6.75271 8.88722 7.02961 7.30304 7.1002" fill="white"/>
</g>
<defs>
<clipPath id="clip0_1_2689">
<rect width="13" height="13" fill="white"/>
</clipPath>
</defs>
</svg>
