<svg width="20" height="18" viewBox="0 0 20 18" fill="none" xmlns="http://www.w3.org/2000/svg">
<path d="M19.0039 0L11.2 5.6269L12.6431 2.30711L19.0039 0Z" fill="#E2761B"/>
<path d="M0.988236 0L8.72941 5.6802L7.35686 2.30711L0.988236 0ZM16.1961 13.0431L14.1176 16.1345L18.5647 17.3223L19.8431 13.1117L16.1961 13.0431ZM0.164706 13.1117L1.43529 17.3223L5.88235 16.1345L3.80392 13.0431L0.164706 13.1117Z" fill="#E4761B"/>
<path d="M5.63137 7.8198L4.39216 9.63959L8.80784 9.82995L8.65098 5.22335L5.63137 7.8198ZM14.3608 7.8198L11.302 5.17005L11.2 9.82995L15.6078 9.63959L14.3608 7.8198ZM5.88235 16.1345L8.53333 14.8782L6.24314 13.1421L5.88235 16.1345ZM11.4588 14.8782L14.1176 16.1345L13.749 13.1421L11.4588 14.8782Z" fill="#E4761B"/>
<path d="M14.1176 16.1345L11.4588 14.8782L11.6706 16.5609L11.6471 17.269L14.1176 16.1345ZM5.88235 16.1345L8.35294 17.269L8.33726 16.5609L8.53333 14.8782L5.88235 16.1345Z" fill="#D7C1B3"/>
<path d="M8.39216 12.0305L6.18039 11.3985L7.74118 10.7056L8.39216 12.0305ZM11.6 12.0305L12.251 10.7056L13.8196 11.3985L11.6 12.0305Z" fill="#233447"/>
<path d="M5.88235 16.1345L6.25882 13.0431L3.80392 13.1117L5.88235 16.1345ZM13.7412 13.0431L14.1176 16.1345L16.1961 13.1117L13.7412 13.0431ZM15.6078 9.63959L11.2 9.82995L11.6078 12.0305L12.2588 10.7056L13.8275 11.3985L15.6078 9.63959ZM6.18039 11.3985L7.74902 10.7056L8.39216 12.0305L8.80784 9.82995L4.39216 9.63959L6.18039 11.3985Z" fill="#CD6116"/>
<path d="M4.39216 9.63959L6.24314 13.1421L6.18039 11.3985L4.39216 9.63959ZM13.8275 11.3985L13.749 13.1421L15.6078 9.63959L13.8275 11.3985ZM8.80784 9.82995L8.39216 12.0305L8.9098 14.6269L9.02745 11.2081L8.80784 9.82995ZM11.2 9.82995L10.9882 11.2005L11.0824 14.6269L11.6078 12.0305L11.2 9.82995Z" fill="#E4751F"/>
<path d="M11.6078 12.0305L11.0824 14.6269L11.4588 14.8782L13.749 13.1421L13.8275 11.3985L11.6078 12.0305ZM6.18039 11.3985L6.24314 13.1421L8.53333 14.8782L8.9098 14.6269L8.39216 12.0305L6.18039 11.3985Z" fill="#F6851B"/>
<path d="M11.6471 17.269L11.6706 16.5609L11.4745 16.3934H8.51765L8.33726 16.5609L8.35294 17.269L5.88235 16.1345L6.7451 16.8198L8.49412 18H11.498L13.2549 16.8198L14.1176 16.1345L11.6471 17.269Z" fill="#C0AD9E"/>
<path d="M11.4588 14.8782L11.0824 14.6269H8.9098L8.53333 14.8782L8.33726 16.5609L8.51765 16.3934H11.4745L11.6706 16.5609L11.4588 14.8782Z" fill="#161616"/>
<path d="M19.3333 5.99239L20 2.88579L19.0039 0L11.4588 5.43655L14.3608 7.8198L18.4627 8.98477L19.3725 7.95685L18.9804 7.68274L19.6078 7.1269L19.1216 6.76142L19.749 6.29695L19.3333 5.99239ZM0 2.88579L0.666667 5.99239L0.243137 6.29695L0.870588 6.76142L0.392157 7.1269L1.01961 7.68274L0.627451 7.95685L1.52941 8.98477L5.63137 7.8198L8.53333 5.43655L0.988236 0L0 2.88579Z" fill="#763D16"/>
<path d="M18.4627 8.98477L14.3608 7.8198L15.6078 9.63959L13.749 13.1421L16.1961 13.1117H19.8431L18.4627 8.98477ZM5.63137 7.8198L1.52941 8.98477L0.164706 13.1117H3.80392L6.24314 13.1421L4.39216 9.63959L5.63137 7.8198ZM11.2 9.82995L11.4588 5.43655L12.651 2.30711H7.35686L8.53333 5.43655L8.80784 9.82995L8.90196 11.2157L8.9098 14.6269H11.0824L11.098 11.2157L11.2 9.82995Z" fill="#F6851B"/>
</svg>
