<svg width="20" height="13" viewBox="0 0 20 13" fill="none" xmlns="http://www.w3.org/2000/svg">
<path d="M4.09445 2.39501C7.35595 -0.798336 12.6441 -0.798336 15.9056 2.39501L16.2981 2.77937C16.3368 2.81692 16.3676 2.86185 16.3886 2.91151C16.4096 2.96116 16.4204 3.01453 16.4204 3.06844C16.4204 3.12236 16.4096 3.17573 16.3886 3.22538C16.3676 3.27504 16.3368 3.31997 16.2981 3.35752L14.9554 4.67225C14.9158 4.71064 14.8629 4.73211 14.8078 4.73211C14.7526 4.73211 14.6997 4.71064 14.6601 4.67225L14.1199 4.14338C11.8446 1.91562 8.15548 1.91562 5.88011 4.14338L5.30162 4.70979C5.26207 4.74818 5.20911 4.76966 5.15399 4.76966C5.09886 4.76966 5.04591 4.74818 5.00635 4.70979L3.66361 3.39506C3.62492 3.35751 3.59416 3.31258 3.57316 3.26292C3.55215 3.21327 3.54133 3.1599 3.54133 3.10599C3.54133 3.05207 3.55215 2.99871 3.57316 2.94905C3.59416 2.8994 3.62492 2.85446 3.66361 2.81691L4.09439 2.39501H4.09445ZM18.6826 5.11396L19.8777 6.28406C19.9164 6.32161 19.9472 6.36654 19.9682 6.4162C19.9892 6.46585 20 6.51922 20 6.57313C20 6.62705 19.9892 6.68041 19.9682 6.73007C19.9472 6.77972 19.9164 6.82466 19.8777 6.86221L14.489 12.1383C14.3259 12.298 14.0616 12.298 13.8985 12.1383L10.0739 8.39373C10.0541 8.37454 10.0276 8.36381 10.0001 8.36381C9.97252 8.36381 9.94605 8.37454 9.92626 8.39373L6.10169 12.1384C5.93859 12.2981 5.67419 12.2981 5.51108 12.1384L0.122311 6.86221C0.0836122 6.82466 0.0528458 6.77972 0.0318358 6.73006C0.0108259 6.6804 0 6.62702 0 6.5731C0 6.51918 0.0108259 6.4658 0.0318358 6.41614C0.0528458 6.36648 0.0836122 6.32154 0.122311 6.28399L1.31741 5.1139C1.48046 4.95426 1.74486 4.95426 1.90796 5.1139L5.7326 8.85851C5.75238 8.8777 5.77886 8.88843 5.80642 8.88843C5.83398 8.88843 5.86046 8.8777 5.88024 8.85851L9.70461 5.11396C9.86772 4.95432 10.132 4.95426 10.2952 5.11396L14.1198 8.85858C14.1396 8.87777 14.1661 8.8885 14.1936 8.8885C14.2212 8.8885 14.2476 8.87777 14.2674 8.85858L18.0921 5.11396C18.2552 4.95432 18.5195 4.95432 18.6826 5.11396Z" fill="#3B99FC"/>
</svg>
